<svg width="24" height="24" viewBox="0 0 24 24" fill="none" xmlns="http://www.w3.org/2000/svg">
<g clip-path="url(#clip0_421_105)">
<path d="M12 7.13101C11.3606 7.13101 10.7274 7.25695 10.1367 7.50164C9.54598 7.74633 9.00923 8.10498 8.5571 8.55711C8.10497 9.00924 7.74632 9.54599 7.50163 10.1367C7.25694 10.7275 7.131 11.3606 7.131 12C7.131 12.6394 7.25694 13.2726 7.50163 13.8633C7.74632 14.454 8.10497 14.9908 8.5571 15.4429C9.00923 15.895 9.54598 16.2537 10.1367 16.4984C10.7274 16.7431 11.3606 16.869 12 16.869C13.2913 16.869 14.5298 16.356 15.4429 15.4429C16.356 14.5298 16.869 13.2914 16.869 12C16.869 10.7087 16.356 9.47022 15.4429 8.55711C14.5298 7.64399 13.2913 7.13101 12 7.13101ZM8.631 12C8.631 11.1065 8.98595 10.2496 9.61776 9.61777C10.2496 8.98596 11.1065 8.63101 12 8.63101C12.8935 8.63101 13.7504 8.98596 14.3822 9.61777C15.0141 10.2496 15.369 11.1065 15.369 12C15.369 12.8935 15.0141 13.7504 14.3822 14.3823C13.7504 15.0141 12.8935 15.369 12 15.369C11.1065 15.369 10.2496 15.0141 9.61776 14.3823C8.98595 13.7504 8.631 12.8935 8.631 12Z" fill="#6D7080"/>
<path d="M14.694 2.01451C13.9035 -0.670487 10.0965 -0.670487 9.306 2.01451L9.165 2.49301C9.10979 2.68044 9.01335 2.85314 8.88272 2.99845C8.7521 3.14376 8.59062 3.258 8.41011 3.33279C8.2296 3.40758 8.03465 3.44103 7.83953 3.43069C7.64442 3.42035 7.45409 3.36647 7.2825 3.27301L6.8445 3.03301C4.3845 1.69501 1.695 4.38601 3.0345 6.84451L3.273 7.28251C3.36646 7.4541 3.42033 7.64443 3.43068 7.83954C3.44102 8.03466 3.40757 8.22962 3.33278 8.41012C3.25799 8.59063 3.14375 8.75212 2.99844 8.88274C2.85313 9.01336 2.68043 9.10981 2.493 9.16501L2.0145 9.30601C-0.6705 10.0965 -0.6705 13.9035 2.0145 14.694L2.493 14.835C2.68043 14.8902 2.85313 14.9867 2.99844 15.1173C3.14375 15.2479 3.25799 15.4094 3.33278 15.5899C3.40757 15.7704 3.44102 15.9654 3.43068 16.1605C3.42033 16.3556 3.36646 16.5459 3.273 16.7175L3.033 17.1555C1.695 19.6155 4.3845 22.3065 6.8445 20.9655L7.2825 20.727C7.45409 20.6336 7.64442 20.5797 7.83953 20.5693C8.03465 20.559 8.2296 20.5924 8.41011 20.6672C8.59062 20.742 8.7521 20.8563 8.88272 21.0016C9.01335 21.1469 9.10979 21.3196 9.165 21.507L9.306 21.9855C10.0965 24.6705 13.9035 24.6705 14.694 21.9855L14.835 21.507C14.8902 21.3196 14.9867 21.1469 15.1173 21.0016C15.2479 20.8563 15.4094 20.742 15.5899 20.6672C15.7704 20.5924 15.9654 20.559 16.1605 20.5693C16.3556 20.5797 16.5459 20.6336 16.7175 20.727L17.1555 20.967C19.6155 22.3065 22.3065 19.614 20.9655 17.1555L20.727 16.7175C20.6335 16.5459 20.5797 16.3556 20.5693 16.1605C20.559 15.9654 20.5924 15.7704 20.6672 15.5899C20.742 15.4094 20.8563 15.2479 21.0016 15.1173C21.1469 14.9867 21.3196 14.8902 21.507 14.835L21.9855 14.694C24.6705 13.9035 24.6705 10.0965 21.9855 9.30601L21.507 9.16501C21.3196 9.10981 21.1469 9.01336 21.0016 8.88274C20.8563 8.75212 20.742 8.59063 20.6672 8.41012C20.5924 8.22962 20.559 8.03466 20.5693 7.83954C20.5797 7.64443 20.6335 7.4541 20.727 7.28251L20.967 6.84451C22.3065 4.38451 19.614 1.69501 17.1555 3.03451L16.7175 3.27301C16.5459 3.36647 16.3556 3.42035 16.1605 3.43069C15.9654 3.44103 15.7704 3.40758 15.5899 3.33279C15.4094 3.258 15.2479 3.14376 15.1173 2.99845C14.9867 2.85314 14.8902 2.68044 14.835 2.49301L14.694 2.01451ZM10.7445 2.43901C11.1135 1.18651 12.8865 1.18651 13.2555 2.43901L13.3965 2.91751C13.515 3.31964 13.7221 3.69014 14.0024 4.00186C14.2827 4.31358 14.6293 4.55861 15.0166 4.71898C15.404 4.87936 15.8223 4.95101 16.2409 4.9287C16.6596 4.90638 17.0679 4.79066 17.436 4.59001L17.8725 4.35001C19.0185 3.72751 20.2725 4.98001 19.6485 6.12751L19.41 6.56551C19.2097 6.93365 19.0942 7.34195 19.0721 7.7605C19.0501 8.17904 19.1219 8.59722 19.2824 8.98439C19.4429 9.37156 19.688 9.71792 19.9998 9.99808C20.3115 10.2782 20.6819 10.4851 21.084 10.6035L21.561 10.7445C22.8135 11.1135 22.8135 12.8865 21.561 13.2555L21.0825 13.3965C20.6804 13.515 20.3099 13.7221 19.9981 14.0024C19.6864 14.2827 19.4414 14.6293 19.281 15.0166C19.1207 15.404 19.049 15.8223 19.0713 16.2409C19.0936 16.6596 19.2094 17.0679 19.41 17.436L19.65 17.8725C20.2725 19.0185 19.02 20.2725 17.8725 19.6485L17.436 19.41C17.0678 19.2094 16.6594 19.0937 16.2406 19.0715C15.8219 19.0493 15.4035 19.1211 15.0162 19.2816C14.6288 19.4421 14.2823 19.6873 14.002 19.9992C13.7218 20.3111 13.5149 20.6818 13.3965 21.084L13.2555 21.561C12.8865 22.8135 11.1135 22.8135 10.7445 21.561L10.6035 21.0825C10.4849 20.6806 10.2779 20.3103 9.9977 19.9987C9.71746 19.6872 9.37109 19.4422 8.98393 19.2819C8.59678 19.1215 8.17866 19.0498 7.7602 19.072C7.34174 19.0942 6.93354 19.2097 6.5655 19.41L6.1275 19.65C4.9815 20.2725 3.7275 19.02 4.3515 17.8725L4.59 17.436C4.79093 17.0679 4.90688 16.6594 4.92934 16.2406C4.9518 15.8217 4.88021 15.4032 4.71982 15.0157C4.55942 14.6281 4.31429 14.2814 4.00242 14.001C3.69054 13.7205 3.31984 13.5135 2.9175 13.395L2.439 13.254C1.1865 12.885 1.1865 11.112 2.439 10.743L2.9175 10.602C3.31921 10.4834 3.68931 10.2764 4.00071 9.99629C4.31212 9.71617 4.55695 9.36996 4.71728 8.983C4.87761 8.59604 4.9494 8.17812 4.92737 7.75984C4.90535 7.34156 4.79008 6.9335 4.59 6.56551L4.35 6.12751C3.7275 4.98151 4.98 3.72751 6.1275 4.35151L6.5655 4.59001C6.93354 4.79038 7.34174 4.90587 7.7602 4.92804C8.17866 4.95021 8.59678 4.87849 8.98393 4.71814C9.37109 4.55778 9.71746 4.31285 9.9977 4.00129C10.2779 3.68973 10.4849 3.31943 10.6035 2.91751L10.7445 2.43901Z" fill="#6D7080"/>
</g>
<defs>
<clipPath id="clip0_421_105">
<rect width="24" height="24" fill="white"/>
</clipPath>
</defs>
</svg>
