<svg width="25" height="26" viewBox="0 0 25 26" fill="none" xmlns="http://www.w3.org/2000/svg">
<path d="M1.59448 0.0119478C1.73011 -0.0101464 1.86905 0.000333344 1.99984 0.042522C2.13062 0.0847106 2.2495 0.157398 2.34665 0.254586L3.46625 1.37592L4.58585 0.254586C4.66635 0.173886 4.76198 0.109859 4.86725 0.0661729C4.97253 0.022487 5.0854 0 5.19938 0C5.31336 0 5.42623 0.022487 5.53151 0.0661729C5.63679 0.109859 5.73241 0.173886 5.81291 0.254586L6.93251 1.37592L8.05211 0.254586C8.1326 0.173886 8.22823 0.109859 8.33351 0.0661729C8.43879 0.022487 8.55165 0 8.66563 0C8.77962 0 8.89248 0.022487 8.99776 0.0661729C9.10304 0.109859 9.19866 0.173886 9.27916 0.254586L10.3988 1.37592L11.5184 0.254586C11.5989 0.173886 11.6945 0.109859 11.7998 0.0661729C11.905 0.022487 12.0179 0 12.1319 0C12.2459 0 12.3587 0.022487 12.464 0.0661729C12.5693 0.109859 12.6649 0.173886 12.7454 0.254586L13.865 1.37592L14.9846 0.254586C15.0651 0.173886 15.1607 0.109859 15.266 0.0661729C15.3713 0.022487 15.4842 0 15.5981 0C15.7121 0 15.825 0.022487 15.9303 0.0661729C16.0355 0.109859 16.1312 0.173886 16.2117 0.254586L17.3313 1.37592L18.4509 0.254586C18.5314 0.173886 18.627 0.109859 18.7323 0.0661729C18.8375 0.022487 18.9504 0 19.0644 0C19.1784 0 19.2912 0.022487 19.3965 0.0661729C19.5018 0.109859 19.5974 0.173886 19.6779 0.254586L20.7975 1.37592L21.9171 0.254586C22.0142 0.157414 22.133 0.084717 22.2637 0.0424917C22.3945 0.000266343 22.5333 -0.0102779 22.6689 0.0117286C22.8045 0.0337352 22.933 0.087662 23.0436 0.169061C23.1543 0.25046 23.244 0.357 23.3054 0.479892L24.1719 2.21302C24.2323 2.33352 24.2638 2.46645 24.2638 2.60124V23.3988C24.2638 23.5336 24.2323 23.6665 24.1719 23.787L23.3054 25.5201C23.2439 25.6427 23.1542 25.7489 23.0437 25.8301C22.9332 25.9113 22.805 25.9651 22.6697 25.9871C22.5343 26.0091 22.3957 25.9986 22.2652 25.9566C22.1347 25.9146 22.016 25.8422 21.9189 25.7454L20.7975 24.6241L19.6779 25.7454C19.5974 25.8261 19.5018 25.8901 19.3965 25.9338C19.2912 25.9775 19.1784 26 19.0644 26C18.9504 26 18.8375 25.9775 18.7323 25.9338C18.627 25.8901 18.5314 25.8261 18.4509 25.7454L17.3313 24.6241L16.2117 25.7454C16.1312 25.8261 16.0355 25.8901 15.9303 25.9338C15.825 25.9775 15.7121 26 15.5981 26C15.4842 26 15.3713 25.9775 15.266 25.9338C15.1607 25.8901 15.0651 25.8261 14.9846 25.7454L13.865 24.6241L12.7454 25.7454C12.6649 25.8261 12.5693 25.8901 12.464 25.9338C12.3587 25.9775 12.2459 26 12.1319 26C12.0179 26 11.905 25.9775 11.7998 25.9338C11.6945 25.8901 11.5989 25.8261 11.5184 25.7454L10.3988 24.6241L9.27916 25.7454C9.19866 25.8261 9.10304 25.8901 8.99776 25.9338C8.89248 25.9775 8.77962 26 8.66563 26C8.55165 26 8.43879 25.9775 8.33351 25.9338C8.22823 25.8901 8.1326 25.8261 8.05211 25.7454L6.93251 24.6241L5.81291 25.7454C5.73241 25.8261 5.63679 25.8901 5.53151 25.9338C5.42623 25.9775 5.31336 26 5.19938 26C5.0854 26 4.97253 25.9775 4.86725 25.9338C4.76198 25.8901 4.66635 25.8261 4.58585 25.7454L3.46625 24.6241L2.34665 25.7454C2.24956 25.8426 2.13075 25.9153 2.00003 25.9575C1.86932 25.9997 1.73043 26.0103 1.59484 25.9883C1.45924 25.9663 1.33082 25.9123 1.22017 25.8309C1.10952 25.7495 1.0198 25.643 0.958419 25.5201L0.0918557 23.787C0.0314609 23.6665 9.02601e-06 23.5336 0 23.3988V2.60124C9.02601e-06 2.46645 0.0314609 2.33352 0.0918557 2.21302L0.958419 0.479892C1.01979 0.357085 1.10946 0.250617 1.22005 0.16926C1.33064 0.0879031 1.45897 0.0339849 1.59448 0.0119478ZM1.97057 2.33087L1.73313 2.80575V23.1943L1.97057 23.6691L2.85446 22.7852C3.01696 22.6228 3.23734 22.5315 3.46712 22.5315C3.6969 22.5315 3.91728 22.6228 4.07978 22.7852L5.19938 23.9066L6.31898 22.787C6.39948 22.7063 6.4951 22.6422 6.60038 22.5986C6.70566 22.5549 6.81852 22.5324 6.93251 22.5324C7.04649 22.5324 7.15935 22.5549 7.26463 22.5986C7.36991 22.6422 7.46554 22.7063 7.54603 22.787L8.66563 23.9066L9.78523 22.787C9.86573 22.7063 9.96136 22.6422 10.0666 22.5986C10.1719 22.5549 10.2848 22.5324 10.3988 22.5324C10.5127 22.5324 10.6256 22.5549 10.7309 22.5986C10.8362 22.6422 10.9318 22.7063 11.0123 22.787L12.1319 23.9066L13.2515 22.787C13.332 22.7063 13.4276 22.6422 13.5329 22.5986C13.6382 22.5549 13.751 22.5324 13.865 22.5324C13.979 22.5324 14.0919 22.5549 14.1971 22.5986C14.3024 22.6422 14.398 22.7063 14.4785 22.787L15.5981 23.9066L16.7177 22.787C16.7982 22.7063 16.8939 22.6422 16.9991 22.5986C17.1044 22.5549 17.2173 22.5324 17.3313 22.5324C17.4453 22.5324 17.5581 22.5549 17.6634 22.5986C17.7687 22.6422 17.8643 22.7063 17.9448 22.787L19.0644 23.9066L20.184 22.787C20.2645 22.7063 20.3601 22.6422 20.4654 22.5986C20.5707 22.5549 20.6835 22.5324 20.7975 22.5324C20.9115 22.5324 21.0244 22.5549 21.1296 22.5986C21.2349 22.6422 21.3306 22.7063 21.411 22.787L22.2932 23.6691L22.5306 23.1943V2.80575L22.2932 2.33087L21.4093 3.21477C21.2468 3.37722 21.0264 3.46848 20.7967 3.46848C20.5669 3.46848 20.3465 3.37722 20.184 3.21477L19.0644 2.09343L17.9448 3.21477C17.8643 3.29547 17.7687 3.35949 17.6634 3.40318C17.5581 3.44686 17.4453 3.46935 17.3313 3.46935C17.2173 3.46935 17.1044 3.44686 16.9991 3.40318C16.8939 3.35949 16.7982 3.29547 16.7177 3.21477L15.5981 2.09343L14.4785 3.21477C14.398 3.29547 14.3024 3.35949 14.1971 3.40318C14.0919 3.44686 13.979 3.46935 13.865 3.46935C13.751 3.46935 13.6382 3.44686 13.5329 3.40318C13.4276 3.35949 13.332 3.29547 13.2515 3.21477L12.1319 2.09343L11.0123 3.21477C10.9318 3.29547 10.8362 3.35949 10.7309 3.40318C10.6256 3.44686 10.5127 3.46935 10.3988 3.46935C10.2848 3.46935 10.1719 3.44686 10.0666 3.40318C9.96136 3.35949 9.86573 3.29547 9.78523 3.21477L8.66563 2.09343L7.54603 3.21477C7.46554 3.29547 7.36991 3.35949 7.26463 3.40318C7.15935 3.44686 7.04649 3.46935 6.93251 3.46935C6.81852 3.46935 6.70566 3.44686 6.60038 3.40318C6.4951 3.35949 6.39948 3.29547 6.31898 3.21477L5.19938 2.09343L4.07978 3.21477C3.99928 3.29547 3.90366 3.35949 3.79838 3.40318C3.6931 3.44686 3.58024 3.46935 3.46625 3.46935C3.35227 3.46935 3.23941 3.44686 3.13413 3.40318C3.02885 3.35949 2.93322 3.29547 2.85273 3.21477L1.97057 2.33087Z" fill="#465872"/>
<path d="M3.46631 6.93407C3.46631 6.70424 3.55761 6.48383 3.72012 6.32132C3.88263 6.1588 4.10305 6.0675 4.33287 6.0675H14.7316C14.9615 6.0675 15.1819 6.1588 15.3444 6.32132C15.5069 6.48383 15.5982 6.70424 15.5982 6.93407C15.5982 7.1639 15.5069 7.38431 15.3444 7.54682C15.1819 7.70933 14.9615 7.80063 14.7316 7.80063H4.33287C4.10305 7.80063 3.88263 7.70933 3.72012 7.54682C3.55761 7.38431 3.46631 7.1639 3.46631 6.93407ZM3.46631 10.4003C3.46631 10.1705 3.55761 9.95008 3.72012 9.78757C3.88263 9.62506 4.10305 9.53376 4.33287 9.53376H14.7316C14.9615 9.53376 15.1819 9.62506 15.3444 9.78757C15.5069 9.95008 15.5982 10.1705 15.5982 10.4003C15.5982 10.6301 15.5069 10.8506 15.3444 11.0131C15.1819 11.1756 14.9615 11.2669 14.7316 11.2669H4.33287C4.10305 11.2669 3.88263 11.1756 3.72012 11.0131C3.55761 10.8506 3.46631 10.6301 3.46631 10.4003ZM3.46631 13.8666C3.46631 13.6367 3.55761 13.4163 3.72012 13.2538C3.88263 13.0913 4.10305 13 4.33287 13H14.7316C14.9615 13 15.1819 13.0913 15.3444 13.2538C15.5069 13.4163 15.5982 13.6367 15.5982 13.8666C15.5982 14.0964 15.5069 14.3168 15.3444 14.4793C15.1819 14.6418 14.9615 14.7331 14.7316 14.7331H4.33287C4.10305 14.7331 3.88263 14.6418 3.72012 14.4793C3.55761 14.3168 3.46631 14.0964 3.46631 13.8666ZM3.46631 17.3328C3.46631 17.103 3.55761 16.8826 3.72012 16.7201C3.88263 16.5576 4.10305 16.4663 4.33287 16.4663H14.7316C14.9615 16.4663 15.1819 16.5576 15.3444 16.7201C15.5069 16.8826 15.5982 17.103 15.5982 17.3328C15.5982 17.5627 15.5069 17.7831 15.3444 17.9456C15.1819 18.1081 14.9615 18.1994 14.7316 18.1994H4.33287C4.10305 18.1994 3.88263 18.1081 3.72012 17.9456C3.55761 17.7831 3.46631 17.5627 3.46631 17.3328ZM17.3313 6.93407C17.3313 6.70424 17.4226 6.48383 17.5851 6.32132C17.7476 6.1588 17.9681 6.0675 18.1979 6.0675H19.931C20.1608 6.0675 20.3813 6.1588 20.5438 6.32132C20.7063 6.48383 20.7976 6.70424 20.7976 6.93407C20.7976 7.1639 20.7063 7.38431 20.5438 7.54682C20.3813 7.70933 20.1608 7.80063 19.931 7.80063H18.1979C17.9681 7.80063 17.7476 7.70933 17.5851 7.54682C17.4226 7.38431 17.3313 7.1639 17.3313 6.93407ZM17.3313 10.4003C17.3313 10.1705 17.4226 9.95008 17.5851 9.78757C17.7476 9.62506 17.9681 9.53376 18.1979 9.53376H19.931C20.1608 9.53376 20.3813 9.62506 20.5438 9.78757C20.7063 9.95008 20.7976 10.1705 20.7976 10.4003C20.7976 10.6301 20.7063 10.8506 20.5438 11.0131C20.3813 11.1756 20.1608 11.2669 19.931 11.2669H18.1979C17.9681 11.2669 17.7476 11.1756 17.5851 11.0131C17.4226 10.8506 17.3313 10.6301 17.3313 10.4003ZM17.3313 13.8666C17.3313 13.6367 17.4226 13.4163 17.5851 13.2538C17.7476 13.0913 17.9681 13 18.1979 13H19.931C20.1608 13 20.3813 13.0913 20.5438 13.2538C20.7063 13.4163 20.7976 13.6367 20.7976 13.8666C20.7976 14.0964 20.7063 14.3168 20.5438 14.4793C20.3813 14.6418 20.1608 14.7331 19.931 14.7331H18.1979C17.9681 14.7331 17.7476 14.6418 17.5851 14.4793C17.4226 14.3168 17.3313 14.0964 17.3313 13.8666ZM17.3313 17.3328C17.3313 17.103 17.4226 16.8826 17.5851 16.7201C17.7476 16.5576 17.9681 16.4663 18.1979 16.4663H19.931C20.1608 16.4663 20.3813 16.5576 20.5438 16.7201C20.7063 16.8826 20.7976 17.103 20.7976 17.3328C20.7976 17.5627 20.7063 17.7831 20.5438 17.9456C20.3813 18.1081 20.1608 18.1994 19.931 18.1994H18.1979C17.9681 18.1994 17.7476 18.1081 17.5851 17.9456C17.4226 17.7831 17.3313 17.5627 17.3313 17.3328Z" fill="#465872"/>
</svg>
