<?xml version="1.0" encoding="utf-8"?>
<!-- Generator: Adobe Illustrator 24.2.1, SVG Export Plug-In . SVG Version: 6.00 Build 0)  -->
<svg version="1.1" id="Layer_1" xmlns="http://www.w3.org/2000/svg" xmlns:xlink="http://www.w3.org/1999/xlink" x="0px" y="0px"
	 viewBox="0 0 27 26" style="enable-background:new 0 0 27 26;" xml:space="preserve">
<style type="text/css">
	.st0{fill-rule:evenodd;clip-rule:evenodd;fill:#465872;}
</style>
<path class="st0" d="M2.8,25.9c-1.5,0-2.7-1.2-2.7-2.7V2.8c0-0.7,0.3-1.4,0.8-1.9c0.5-0.5,1.2-0.8,1.9-0.8h16.7
	c0.7,0,1.4,0.3,1.9,0.8c0.5,0.5,0.8,1.2,0.8,1.9v12.5l0.1,0c1,0.3,1.8,1,2.5,1.8l0.1,0.1L25,17c0.1-0.1,0.3-0.2,0.5-0.2
	c0.3,0,0.5,0.1,0.7,0.3c0.3,0.4,0.2,0.9-0.2,1.2l-0.4,0.3l0,0.1c0.2,0.6,0.3,1.1,0.3,1.7c0,3-2.5,5.5-5.5,5.5H2.8z M20.4,16.6
	c-2.1,0-3.8,1.7-3.8,3.8c0,2.1,1.7,3.8,3.8,3.8c2.1,0,3.8-1.7,3.8-3.8c0-0.2,0-0.4,0-0.6l0-0.2L20.9,22c-0.1,0.1-0.3,0.2-0.5,0.2
	c-0.2,0-0.4-0.1-0.6-0.2l-1.4-1.4c-0.3-0.3-0.3-0.8,0-1.2c0.2-0.2,0.4-0.2,0.6-0.2c0.2,0,0.4,0.1,0.6,0.2l0.9,0.9l3-2.1L23.4,18
	C22.7,17.1,21.6,16.6,20.4,16.6z M2.8,1.8c-0.3,0-0.5,0.1-0.7,0.3C1.9,2.2,1.8,2.5,1.8,2.8v20.4c0,0.6,0.5,1,1,1h13.7l-0.1-0.2
	c-0.9-1-1.4-2.3-1.4-3.6v-0.1h-4.7c-0.5,0-0.8-0.4-0.8-0.8s0.4-0.8,0.8-0.8h5l0-0.1c0.8-2.2,2.8-3.6,5.2-3.6h0.1V2.8
	c0-0.3-0.1-0.5-0.3-0.7c-0.2-0.2-0.5-0.3-0.7-0.3H2.8z M4.6,20.3c-0.5,0-0.8-0.4-0.8-0.8s0.4-0.8,0.8-0.8h1.9c0.5,0,0.8,0.4,0.8,0.8
	S7,20.3,6.5,20.3H4.6z M10.2,13.8c-0.5,0-0.8-0.4-0.8-0.8s0.4-0.8,0.8-0.8h7.4c0.5,0,0.8,0.4,0.8,0.8s-0.4,0.8-0.8,0.8H10.2z
	 M4.6,13.8c-0.5,0-0.8-0.4-0.8-0.8s0.4-0.8,0.8-0.8h1.9c0.5,0,0.8,0.4,0.8,0.8S7,13.8,6.5,13.8H4.6z M10.2,7.3
	C9.8,7.3,9.4,7,9.4,6.5s0.4-0.8,0.8-0.8h7.4c0.5,0,0.8,0.4,0.8,0.8s-0.4,0.8-0.8,0.8H10.2z M4.6,7.3C4.2,7.3,3.8,7,3.8,6.5
	s0.4-0.8,0.8-0.8h1.9C7,5.7,7.3,6,7.3,6.5S7,7.3,6.5,7.3H4.6z"/>
</svg>
