<svg width="24" height="24" viewBox="0 0 24 24" fill="none" xmlns="http://www.w3.org/2000/svg">
<path fill-rule="evenodd" clip-rule="evenodd" d="M12 24C18.6274 24 24 18.6274 24 12C24 5.37259 18.6274 0 12 0C5.37259 0 0 5.37259 0 12C0 18.6274 5.37259 24 12 24ZM8.69851 11.247C8.19235 10.7409 7.37179 10.7409 6.86568 11.247C6.35957 11.7532 6.35957 12.5737 6.86568 13.0799L10.0561 16.2703C10.5623 16.7764 11.3828 16.7764 11.889 16.2703L17.9984 10.1609C18.5045 9.65482 18.5045 8.83421 17.9984 8.3281C17.4923 7.82198 16.6716 7.82198 16.1655 8.3281L10.9726 13.5211L8.69851 11.247Z" fill="#28A34A"/>
</svg>
