<svg width="24" height="24" viewBox="0 0 24 24" fill="none" xmlns="http://www.w3.org/2000/svg">
<path d="M10.6437 15.5387C10.4205 15.5387 10.2084 15.4494 10.0521 15.2931L7.3507 12.5917C7.02698 12.268 7.02698 11.7321 7.3507 11.4084C7.67442 11.0847 8.21023 11.0847 8.53396 11.4084L10.6437 13.5182L15.4437 8.71819C15.7674 8.39447 16.3033 8.39447 16.627 8.71819C16.9507 9.04191 16.9507 9.57773 16.627 9.90145L11.2354 15.2931C11.0791 15.4494 10.867 15.5387 10.6437 15.5387Z" fill="#465872"/>
<path d="M11.9944 24C11.2912 24 10.5879 23.7656 10.0409 23.2967L8.27721 21.7786C8.09861 21.6223 7.65209 21.466 7.41767 21.466H5.49767C3.84558 21.466 2.50605 20.1265 2.50605 18.4744V16.5656C2.50605 16.3312 2.34977 15.8958 2.19349 15.7172L0.686512 13.9423C-0.228837 12.8595 -0.228837 11.1516 0.686512 10.0688L2.19349 8.29395C2.34977 8.11535 2.50605 7.68 2.50605 7.44558V5.52558C2.50605 3.87349 3.84558 2.53395 5.49767 2.53395H7.42884C7.66326 2.53395 8.10978 2.36651 8.28838 2.2214L10.0521 0.703256C11.146 -0.234419 12.854 -0.234419 13.9479 0.703256L15.7116 2.2214C15.8902 2.37767 16.3367 2.53395 16.5712 2.53395H18.4688C20.1209 2.53395 21.4605 3.87349 21.4605 5.52558V7.42326C21.4605 7.65767 21.6279 8.10419 21.7842 8.28279L23.3023 10.0465C24.24 11.1405 24.24 12.8484 23.3023 13.9423L21.7842 15.706C21.6279 15.8847 21.4605 16.3312 21.4605 16.5656V18.4633C21.4605 20.1154 20.1209 21.4549 18.4688 21.4549H16.5712C16.3367 21.4549 15.8902 21.6223 15.7116 21.7674L13.9479 23.2856C13.4009 23.7656 12.6977 24 11.9944 24ZM5.49767 4.20837C4.77209 4.20837 4.18047 4.8 4.18047 5.52558V7.43442C4.18047 8.0707 3.87907 8.88558 3.46605 9.36558L1.95907 11.1405C1.56837 11.5981 1.56837 12.3907 1.95907 12.8484L3.46605 14.6233C3.87907 15.1144 4.18047 15.9181 4.18047 16.5544V18.4633C4.18047 19.1888 4.77209 19.7805 5.49767 19.7805H7.42884C8.07628 19.7805 8.89116 20.0819 9.38233 20.506L11.146 22.0242C11.6037 22.4149 12.4074 22.4149 12.8651 22.0242L14.6288 20.506C15.12 20.093 15.9349 19.7805 16.5823 19.7805H18.48C19.2056 19.7805 19.7972 19.1888 19.7972 18.4633V16.5656C19.7972 15.9181 20.0986 15.1033 20.5228 14.6121L22.0409 12.8484C22.4316 12.3907 22.4316 11.587 22.0409 11.1293L20.5228 9.36558C20.0986 8.87442 19.7972 8.05954 19.7972 7.41209V5.52558C19.7972 4.8 19.2056 4.20837 18.48 4.20837H16.5823C15.9349 4.20837 15.12 3.90698 14.6288 3.48279L12.8651 1.96465C12.4074 1.57395 11.6037 1.57395 11.146 1.96465L9.38233 3.49395C8.89116 3.90698 8.06512 4.20837 7.42884 4.20837H5.49767Z" fill="#465872"/>
</svg>
