<?xml version="1.0" encoding="utf-8"?>
<!-- Generator: Adobe Illustrator 24.2.1, SVG Export Plug-In . SVG Version: 6.00 Build 0)  -->
<svg version="1.1" id="Layer_1" xmlns="http://www.w3.org/2000/svg" xmlns:xlink="http://www.w3.org/1999/xlink" x="0px" y="0px"
	 viewBox="0 0 27 26" style="enable-background:new 0 0 27 26;" xml:space="preserve">
<style type="text/css">
	.st0{fill:#465872;}
</style>
<path class="st0" d="M6.5,12.1c-0.5,0-0.9-0.4-0.9-0.9s0.4-0.9,0.9-0.9H17c0.5,0,0.9,0.4,0.9,0.9s-0.4,0.9-0.9,0.9H6.5z"/>
<path class="st0" d="M6.5,16.2c-0.5,0-0.9-0.4-0.9-0.9s0.4-0.9,0.9-0.9h6.4c0.5,0,0.9,0.4,0.9,0.9s-0.4,0.9-0.9,0.9H6.5z"/>
<path class="st0" d="M4.7,25.9c-2.5,0-4.6-1.8-4.6-4V4.1c0-2.2,2.1-4,4.6-4h14.4c2.5,0,4.6,1.8,4.6,4v6.2c0,0.5-0.5,0.9-1.1,0.9
	c-0.6,0-1.1-0.4-1.1-0.9V4.1c0-1.2-1.1-2.1-2.4-2.1H4.7c-1.4,0-2.4,1-2.4,2.1v17.9c0,1.2,1.1,2.1,2.4,2.1h3.9c0.6,0,1.1,0.4,1.1,0.9
	s-0.5,0.9-1.1,0.9H4.7z"/>
<path class="st0" d="M14.9,25.9c-0.2,0-0.5-0.1-0.7-0.3C14,25.4,13.9,25,14,24.7l1.2-4c0-0.1,0.1-0.3,0.2-0.4l5.6-5.6
	c0.6-0.6,1.3-0.9,2.1-0.9s1.5,0.3,2.1,0.9s0.9,1.3,0.9,2.1s-0.3,1.5-0.9,2.1l-5.6,5.6c-0.1,0.1-0.3,0.2-0.4,0.2l-4.1,1.1
	C15.1,25.9,15,25.9,14.9,25.9z M17,21.5l-0.7,2.2l2.2-0.6l3.9-3.8l-1.6-1.6L17,21.5z M23.1,15.7c-0.3,0-0.6,0.1-0.8,0.3l-0.3,0.3
	l1.6,1.6l0.3-0.3c0.4-0.4,0.4-1.1,0-1.6C23.7,15.9,23.4,15.7,23.1,15.7z"/>
<path class="st0" d="M6.5,8C6,8,5.6,7.6,5.6,7.1S6,6.2,6.5,6.2H17c0.5,0,0.9,0.4,0.9,0.9S17.5,8,17,8H6.5z"/>
</svg>
