<svg width="21" height="21" viewBox="0 0 21 21" fill="none" xmlns="http://www.w3.org/2000/svg">
<path d="M19.5 6.885V2.25C19.5 1.65326 19.2629 1.08097 18.841 0.65901C18.419 0.237053 17.8467 0 17.25 0H3.75C3.15326 0 2.58097 0.237053 2.15901 0.65901C1.73705 1.08097 1.5 1.65326 1.5 2.25V3.885C1.06234 4.03973 0.683249 4.32605 0.414704 4.7047C0.146159 5.08335 0.00130463 5.53579 0 6V18.75C0 19.3467 0.237053 19.919 0.65901 20.341C1.08097 20.7629 1.65326 21 2.25 21H18.75C19.3467 21 19.919 20.7629 20.341 20.341C20.7629 19.919 21 19.3467 21 18.75V9C20.9987 8.53579 20.8538 8.08335 20.5853 7.7047C20.3168 7.32605 19.9377 7.03973 19.5 6.885ZM3.75 1.5H17.25C17.4489 1.5 17.6397 1.57902 17.7803 1.71967C17.921 1.86032 18 2.05109 18 2.25V6.75H10.68C10.5402 6.75097 10.403 6.71287 10.2837 6.63998C10.1644 6.56709 10.0679 6.46233 10.005 6.3375L9.3375 4.995C9.15042 4.62027 8.86246 4.30519 8.50602 4.08523C8.14959 3.86528 7.73884 3.74918 7.32 3.75H3V2.25C3 2.05109 3.07902 1.86032 3.21967 1.71967C3.36032 1.57902 3.55109 1.5 3.75 1.5ZM19.5 18.75C19.5 18.9489 19.421 19.1397 19.2803 19.2803C19.1397 19.421 18.9489 19.5 18.75 19.5H2.25C2.05109 19.5 1.86032 19.421 1.71967 19.2803C1.57902 19.1397 1.5 18.9489 1.5 18.75V6C1.5 5.80109 1.57902 5.61032 1.71967 5.46967C1.86032 5.32902 2.05109 5.25 2.25 5.25H7.32C7.45977 5.24903 7.59704 5.28713 7.71631 5.36002C7.83558 5.43291 7.9321 5.53767 7.995 5.6625L8.6625 7.005C8.84958 7.37973 9.13754 7.69481 9.49398 7.91477C9.85041 8.13472 10.2612 8.25082 10.68 8.25H18.75C18.9489 8.25 19.1397 8.32902 19.2803 8.46967C19.421 8.61032 19.5 8.80109 19.5 9V18.75Z" fill="#465872"/>
<path d="M11.0326 9.60747C10.9628 9.53717 10.8799 9.48138 10.7885 9.4433C10.6971 9.40522 10.5991 9.38562 10.5001 9.38562C10.4011 9.38562 10.303 9.40522 10.2116 9.4433C10.1202 9.48138 10.0373 9.53717 9.96757 9.60747C9.82788 9.74799 9.74947 9.93808 9.74947 10.1362C9.74947 10.3344 9.82788 10.5244 9.96757 10.665L11.8726 12.57H7.32007C7.12116 12.57 6.93039 12.649 6.78974 12.7896C6.64909 12.9303 6.57007 13.1211 6.57007 13.32C6.57007 13.5189 6.64909 13.7096 6.78974 13.8503C6.93039 13.991 7.12116 14.07 7.32007 14.07H11.8726L9.96757 15.9675C9.89727 16.0372 9.84148 16.1201 9.8034 16.2115C9.76532 16.3029 9.74572 16.401 9.74572 16.5C9.74572 16.599 9.76532 16.697 9.8034 16.7884C9.84148 16.8798 9.89727 16.9627 9.96757 17.0325C10.0373 17.1028 10.1202 17.1586 10.2116 17.1966C10.303 17.2347 10.4011 17.2543 10.5001 17.2543C10.5991 17.2543 10.6971 17.2347 10.7885 17.1966C10.8799 17.1586 10.9628 17.1028 11.0326 17.0325L14.2501 13.845C14.3886 13.7053 14.4667 13.5167 14.4676 13.32C14.4681 13.2213 14.4492 13.1234 14.4119 13.032C14.3746 12.9407 14.3196 12.8575 14.2501 12.7875L11.0326 9.60747Z" fill="#465872"/>
</svg>
