<svg width="25" height="26" viewBox="0 0 25 26" fill="none" xmlns="http://www.w3.org/2000/svg">
<path d="M24.93 5.31862C24.8509 5.19009 24.735 5.0887 24.5976 5.02779L13.0948 0.118981C12.7139 -0.0396605 12.2861 -0.0396605 11.9052 0.118981L6.37685 2.48085L0.402408 5.02779C0.286589 5.08243 0.187847 5.168 0.116908 5.27521C0.0459685 5.38241 0.00554541 5.50716 2.96657e-05 5.63588V19.7366C-0.00185619 20.0401 0.0862105 20.3373 0.252954 20.59C0.419697 20.8428 0.657529 21.0397 0.935997 21.1555L12.2288 25.9409C12.314 25.9798 12.4065 26 12.5 26C12.5935 26 12.686 25.9798 12.7712 25.9409L24.064 21.1555C24.3425 21.0397 24.5803 20.8428 24.747 20.59C24.9138 20.3373 25.0019 20.0401 25 19.7366V5.60063C24.9986 5.50244 24.9747 5.4059 24.93 5.31862ZM12.4125 1.33517C12.4695 1.3175 12.5305 1.3175 12.5875 1.33517L22.6469 5.60063L18.422 7.36322L8.27503 3.08894L12.4125 1.33517ZM6.57804 3.8116L16.725 8.11232L12.5 9.87491L2.35307 5.60063L6.57804 3.8116ZM1.45209 19.86C1.41134 19.8441 1.37622 19.8164 1.35128 19.7802C1.32633 19.7441 1.3127 19.7013 1.31213 19.6573V6.59649L1.52207 6.68462L11.8439 11.0911V24.3105L1.45209 19.86ZM23.6879 19.6573C23.688 19.7003 23.6757 19.7424 23.6524 19.7784C23.629 19.8144 23.5958 19.8428 23.5567 19.86L13.1561 24.2664V11.047L23.4779 6.64056L23.6879 6.55243V19.6573Z" fill="#465872"/>
</svg>
