<svg width="24" height="26" viewBox="0 0 24 26" fill="none" xmlns="http://www.w3.org/2000/svg">
<path d="M21.0166 1.42467H17.7375C16.8722 0.552957 15.597 0 14.176 0H9.46037C8.03939 0 6.76419 0.552957 5.8989 1.42467H2.61979C1.17524 1.42467 0 2.45182 0 3.71429V23.7104C0 24.9728 1.17524 26 2.61979 26H21.0166C22.4611 26 23.6364 24.9728 23.6364 23.7104V3.71429C23.6364 2.45177 22.4611 1.42467 21.0166 1.42467ZM9.46037 1.52643H14.176C15.5253 1.52643 16.6459 2.3143 17.0141 3.35811H6.62226C6.98984 2.31613 8.10896 1.52643 9.46037 1.52643ZM21.8898 23.7104C21.8898 24.1312 21.4981 24.4736 21.0166 24.4736H2.61979C2.13828 24.4736 1.74653 24.1312 1.74653 23.7104V3.71429C1.74653 3.29347 2.13828 2.9511 2.61979 2.9511H4.93953C4.81349 3.32231 4.74474 3.71485 4.74474 4.12136C4.74474 4.54284 5.13573 4.88455 5.618 4.88455H18.0184C18.5006 4.88455 18.8916 4.54284 18.8916 4.12136C18.8916 3.71485 18.8229 3.32231 18.6968 2.9511H21.0166C21.4981 2.9511 21.8898 3.29347 21.8898 3.71429V23.7104Z" fill="#465872"/>
<path d="M7.73574 15.1655L6.6155 16.2879L6.34159 16.0135C6.04416 15.7154 5.56184 15.7154 5.26437 16.0135C4.96689 16.3115 4.96689 16.7947 5.26437 17.0928L6.07687 17.9069C6.37429 18.2049 6.85661 18.2049 7.15409 17.9069L8.81291 16.2448C9.11039 15.9467 9.11039 15.4635 8.81291 15.1655C8.51548 14.8674 8.03316 14.8674 7.73574 15.1655Z" fill="#465872"/>
<path d="M17.1272 15.7731H10.9827C10.562 15.7731 10.2209 16.1148 10.2209 16.5363C10.2209 16.9577 10.562 17.2995 10.9827 17.2995H17.1272C17.5479 17.2995 17.8889 16.9577 17.8889 16.5363C17.8889 16.1148 17.5479 15.7731 17.1272 15.7731Z" fill="#465872"/>
<path d="M7.73574 19.5412L6.6155 20.6636L6.34159 20.3891C6.04416 20.0911 5.56184 20.0911 5.26437 20.3891C4.96689 20.6872 4.96689 21.1704 5.26437 21.4684L6.07687 22.2825C6.37429 22.5806 6.85661 22.5806 7.15409 22.2825L8.81291 20.6205C9.11039 20.3224 9.11039 19.8392 8.81291 19.5411C8.51548 19.2431 8.03316 19.2431 7.73574 19.5412Z" fill="#465872"/>
<path d="M17.1272 20.1487H10.9827C10.562 20.1487 10.2209 20.4904 10.2209 20.9119C10.2209 21.3334 10.562 21.6751 10.9827 21.6751H17.1272C17.5479 21.6751 17.8889 21.3334 17.8889 20.9119C17.8889 20.4904 17.5479 20.1487 17.1272 20.1487Z" fill="#465872"/>
<path d="M12.9432 12.2423L15.2991 9.88174V9.97269C15.2991 10.3942 15.6401 10.7359 16.0608 10.7359C16.4815 10.7359 16.8225 10.3942 16.8225 9.97269C16.8225 7.81383 16.8261 8.01482 16.8138 7.92956C16.7599 7.55616 16.4404 7.2759 16.0606 7.276H14.1311C13.7105 7.276 13.3694 7.61771 13.3694 8.03919C13.3694 8.46068 13.7105 8.80238 14.1311 8.80238H14.2219L12.4046 10.6232L10.0994 8.31361C9.80198 8.01553 9.31966 8.01553 9.02218 8.31361L6.27999 11.0612C5.98252 11.3592 5.98252 11.8425 6.27999 12.1405C6.57742 12.4386 7.05974 12.4386 7.35721 12.1405L9.56082 9.93262L11.866 12.2423C12.1634 12.5403 12.6457 12.5403 12.9432 12.2423Z" fill="#465872"/>
</svg>
