<svg width="22" height="22" viewBox="0 0 22 22" fill="none" xmlns="http://www.w3.org/2000/svg">
<path d="M3.4375 8.06988H8.25C9.38713 8.06988 10.3125 7.1445 10.3125 6.00738V3.4375C10.3125 2.30038 9.38713 1.375 8.25 1.375H3.4375C2.30037 1.375 1.375 2.30038 1.375 3.4375V6.00738C1.375 7.1445 2.30037 8.06988 3.4375 8.06988ZM2.75 3.4375C2.75 3.05869 3.058 2.75 3.4375 2.75H8.25C8.6295 2.75 8.9375 3.05869 8.9375 3.4375V6.00738C8.9375 6.38619 8.6295 6.69488 8.25 6.69488H3.4375C3.058 6.69488 2.75 6.38619 2.75 6.00738V3.4375Z" fill="#6D7080"/>
<path d="M10.3125 18.5625V11.2544C10.3125 10.1173 9.38713 9.19188 8.25 9.19188H3.4375C2.30037 9.19188 1.375 10.1173 1.375 11.2544V18.5625C1.375 19.6996 2.30037 20.625 3.4375 20.625H8.25C9.38713 20.625 10.3125 19.6996 10.3125 18.5625ZM2.75 18.5625V11.2544C2.75 10.8756 3.058 10.5669 3.4375 10.5669H8.25C8.6295 10.5669 8.9375 10.8756 8.9375 11.2544V18.5625C8.9375 18.9413 8.6295 19.25 8.25 19.25H3.4375C3.058 19.25 2.75 18.9413 2.75 18.5625Z" fill="#6D7080"/>
<path d="M18.5625 13.9301H13.75C12.6129 13.9301 11.6875 14.8555 11.6875 15.9926V18.5625C11.6875 19.6996 12.6129 20.625 13.75 20.625H18.5625C19.6996 20.625 20.625 19.6996 20.625 18.5625V15.9926C20.625 14.8555 19.6996 13.9301 18.5625 13.9301ZM19.25 18.5625C19.25 18.9413 18.942 19.25 18.5625 19.25H13.75C13.3705 19.25 13.0625 18.9413 13.0625 18.5625V15.9926C13.0625 15.6138 13.3705 15.3051 13.75 15.3051H18.5625C18.942 15.3051 19.25 15.6138 19.25 15.9926V18.5625Z" fill="#6D7080"/>
<path d="M18.5625 1.375H13.75C12.6129 1.375 11.6875 2.30037 11.6875 3.4375V10.7456C11.6875 11.8828 12.6129 12.8081 13.75 12.8081H18.5625C19.6996 12.8081 20.625 11.8828 20.625 10.7456V3.4375C20.625 2.30037 19.6996 1.375 18.5625 1.375ZM19.25 10.7456C19.25 11.1244 18.942 11.4331 18.5625 11.4331H13.75C13.3705 11.4331 13.0625 11.1244 13.0625 10.7456V3.4375C13.0625 3.05869 13.3705 2.75 13.75 2.75H18.5625C18.942 2.75 19.25 3.05869 19.25 3.4375V10.7456Z" fill="#6D7080"/>
</svg>
