<svg width="24" height="24" viewBox="0 0 24 24" fill="none" xmlns="http://www.w3.org/2000/svg">
<g clip-path="url(#clip0_368_3395)">
<path d="M23.6575 5.52626C23.5897 5.41688 23.4903 5.33059 23.3725 5.27876L13.51 1.10126C13.1834 0.966248 12.8166 0.966248 12.49 1.10126L7.75 3.11126L2.6275 5.27876C2.52819 5.32526 2.44353 5.39808 2.38271 5.48931C2.32188 5.58055 2.28723 5.68671 2.2825 5.79626V17.7963C2.28088 18.0545 2.35639 18.3074 2.49935 18.5226C2.64232 18.7377 2.84624 18.9052 3.085 19.0038L12.7675 23.0763C12.8405 23.1094 12.9198 23.1266 13 23.1266C13.0802 23.1266 13.1595 23.1094 13.2325 23.0763L22.915 19.0038C23.1538 18.9052 23.3577 18.7377 23.5006 18.5226C23.6436 18.3074 23.7191 18.0545 23.7175 17.7963V5.76626C23.7163 5.68269 23.6958 5.60053 23.6575 5.52626ZM12.925 2.13626C12.9739 2.12122 13.0261 2.12122 13.075 2.13626L21.7 5.76626L18.0775 7.26626L9.3775 3.62876L12.925 2.13626ZM7.9225 4.24376L16.6225 7.90376L13 9.40376L4.3 5.76626L7.9225 4.24376ZM3.5275 17.9013C3.49255 17.8878 3.46245 17.8641 3.44106 17.8334C3.41967 17.8027 3.40798 17.7662 3.4075 17.7288V6.61376L3.5875 6.68876L12.4375 10.4388V21.6888L3.5275 17.9013ZM22.5925 17.7288C22.5926 17.7654 22.582 17.8012 22.562 17.8318C22.5421 17.8625 22.5135 17.8866 22.48 17.9013L13.5625 21.6513V10.4013L22.4125 6.65126L22.5925 6.57626V17.7288Z" fill="#6D7080"/>
<path d="M4.32248 15.186L5.99498 15.891C6.06399 15.9196 6.13779 15.9349 6.21248 15.936C6.34188 15.9354 6.46709 15.8901 6.56701 15.8079C6.66692 15.7256 6.73542 15.6115 6.76097 15.4846C6.78652 15.3578 6.76755 15.226 6.70725 15.1115C6.64696 14.997 6.54903 14.9068 6.42998 14.856L4.74998 14.151C4.68106 14.1213 4.60694 14.1055 4.5319 14.1045C4.45685 14.1035 4.38235 14.1174 4.31266 14.1453C4.24298 14.1731 4.17949 14.2145 4.12583 14.267C4.07217 14.3194 4.0294 14.382 3.99998 14.451C3.9722 14.5204 3.95851 14.5946 3.95973 14.6693C3.96095 14.744 3.97704 14.8178 4.00706 14.8862C4.03708 14.9546 4.08044 15.0164 4.13459 15.0679C4.18875 15.1193 4.25262 15.1595 4.32248 15.186Z" fill="#6D7080"/>
<path d="M6.63999 16.679L4.74999 15.8915C4.68115 15.8572 4.60601 15.8374 4.52922 15.8333C4.45243 15.8292 4.37562 15.8409 4.30353 15.8677C4.23144 15.8945 4.16561 15.9357 4.11009 15.9889C4.05458 16.0422 4.01056 16.1062 3.98077 16.1771C3.95097 16.248 3.93603 16.3242 3.93686 16.4011C3.93769 16.478 3.95428 16.5539 3.98561 16.6241C4.01693 16.6944 4.06232 16.7574 4.11897 16.8094C4.17562 16.8614 4.24234 16.9013 4.31499 16.9265L6.19749 17.6765C6.26609 17.7064 6.34015 17.7217 6.41499 17.7215C6.54439 17.7208 6.6696 17.6755 6.76951 17.5933C6.86943 17.511 6.93793 17.3969 6.96348 17.27C6.98903 17.1432 6.97006 17.0114 6.90976 16.8969C6.84947 16.7824 6.75154 16.6922 6.63249 16.6415L6.63999 16.679Z" fill="#6D7080"/>
<path d="M8.39501 15.6814L7.87001 15.4564C7.72779 15.3978 7.56808 15.398 7.42603 15.4571C7.28397 15.5161 7.17119 15.6292 7.11251 15.7714C7.05384 15.9137 7.05406 16.0734 7.11313 16.2154C7.1722 16.3575 7.28529 16.4703 7.42751 16.5289L7.95251 16.7464C8.02153 16.775 8.09533 16.7903 8.17001 16.7914C8.30006 16.7925 8.42646 16.7485 8.5277 16.6668C8.62893 16.5852 8.69876 16.471 8.72528 16.3437C8.75181 16.2164 8.73339 16.0838 8.67318 15.9685C8.61296 15.8533 8.51467 15.7624 8.39501 15.7114V15.6814Z" fill="#6D7080"/>
<path d="M17.6575 9.77899L15.0325 10.8815C14.9299 10.9234 14.8422 10.9951 14.7807 11.0874C14.7192 11.1796 14.6868 11.2881 14.6875 11.399V14.6165C14.6877 14.7093 14.7104 14.8008 14.7534 14.883C14.7965 14.9653 14.8588 15.0359 14.935 15.089C15.0295 15.148 15.1386 15.1792 15.25 15.179C15.324 15.1781 15.3975 15.1655 15.4675 15.1415L18.0925 14.039C18.1957 13.9957 18.2837 13.9227 18.3451 13.8291C18.4066 13.7356 18.4388 13.6259 18.4375 13.514V10.2665C18.4367 10.1738 18.4138 10.0825 18.3707 10.0004C18.3277 9.91824 18.2658 9.8475 18.19 9.794C18.1094 9.74769 18.0186 9.72208 17.9257 9.71946C17.8327 9.71684 17.7406 9.7373 17.6575 9.77899ZM17.3125 13.1465L15.8125 13.7765V11.744L17.3125 11.114V13.1465Z" fill="#6D7080"/>
</g>
<defs>
<clipPath id="clip0_368_3395">
<rect width="24" height="24" fill="white"/>
</clipPath>
</defs>
</svg>
