<svg width="21" height="24" viewBox="0 0 21 24" fill="none" xmlns="http://www.w3.org/2000/svg">
<path d="M6.50701 2.385C5.07832 2.77848 3.6594 3.2066 2.25151 3.669C2.12285 3.71049 2.00848 3.78736 1.92147 3.89082C1.83446 3.99427 1.77833 4.12014 1.75951 4.254C0.928508 10.4895 2.84851 15.039 5.13901 18.036C6.10835 19.318 7.26475 20.4471 8.56951 21.3855C9.08851 21.7515 9.54751 22.0155 9.90901 22.185C10.089 22.27 10.2355 22.329 10.3485 22.362C10.3983 22.3771 10.4489 22.3896 10.5 22.3995C10.5506 22.3896 10.6007 22.3771 10.65 22.362C10.764 22.328 10.911 22.269 11.091 22.185C11.451 22.0155 11.9115 21.75 12.4305 21.3855C13.7353 20.4471 14.8917 19.318 15.861 18.036C18.1515 15.0405 20.0715 10.4895 19.2405 4.254C19.2217 4.12014 19.1656 3.99427 19.0786 3.89082C18.9915 3.78736 18.8772 3.71049 18.7485 3.669C17.772 3.3495 16.1235 2.829 14.493 2.3865C12.828 1.935 11.2965 1.6005 10.5 1.6005C9.70501 1.6005 8.17201 1.9335 6.50701 2.385ZM6.10801 0.84C7.73551 0.3975 9.46501 0 10.5 0C11.535 0 13.2645 0.3975 14.892 0.84C16.557 1.29 18.2355 1.8225 19.2225 2.145C19.6352 2.28128 20.001 2.5312 20.278 2.86605C20.555 3.20091 20.732 3.60711 20.7885 4.038C21.6825 10.7535 19.608 15.7305 17.091 19.023C16.0232 20.4311 14.7506 21.6713 13.3155 22.7025C12.8198 23.0602 12.2938 23.3739 11.7435 23.64C11.3235 23.838 10.872 24 10.5 24C10.128 24 9.67801 23.838 9.25651 23.64C8.70622 23.3739 8.18022 23.0602 7.68451 22.7025C6.24938 21.6713 4.97677 20.4311 3.90901 19.023C1.39201 15.7305 -0.682492 10.7535 0.211508 4.038C0.268039 3.60711 0.444973 3.20091 0.721983 2.86605C0.998994 2.5312 1.36485 2.28128 1.77751 2.145C3.21039 1.67551 4.6543 1.24039 6.10801 0.84Z" fill="#6D7080"/>
<path d="M14.781 7.719C14.8509 7.78867 14.9063 7.87143 14.9441 7.96255C14.9819 8.05366 15.0013 8.15135 15.0013 8.25C15.0013 8.34865 14.9819 8.44633 14.9441 8.53745C14.9063 8.62857 14.8509 8.71133 14.781 8.781L10.281 13.281C10.2113 13.3508 10.1286 13.4063 10.0375 13.4441C9.94634 13.4819 9.84866 13.5013 9.75001 13.5013C9.65135 13.5013 9.55367 13.4819 9.46255 13.4441C9.37144 13.4063 9.28867 13.3508 9.21901 13.281L6.96901 11.031C6.89927 10.9613 6.84396 10.8785 6.80622 10.7874C6.76848 10.6963 6.74906 10.5986 6.74906 10.5C6.74906 10.4014 6.76848 10.3037 6.80622 10.2126C6.84396 10.1215 6.89927 10.0387 6.96901 9.969C7.03874 9.89927 7.12152 9.84395 7.21263 9.80621C7.30374 9.76847 7.40139 9.74905 7.50001 9.74905C7.59862 9.74905 7.69627 9.76847 7.78738 9.80621C7.87849 9.84395 7.96127 9.89927 8.03101 9.969L9.75001 11.6895L13.719 7.719C13.7887 7.64915 13.8714 7.59374 13.9626 7.55593C14.0537 7.51812 14.1514 7.49866 14.25 7.49866C14.3487 7.49866 14.4463 7.51812 14.5375 7.55593C14.6286 7.59374 14.7113 7.64915 14.781 7.719Z" fill="#6D7080"/>
</svg>
