<svg width="24" height="24" viewBox="0 0 24 24" fill="none" xmlns="http://www.w3.org/2000/svg">
<g clip-path="url(#clip0_421_195)">
<path d="M11.9993 2.81201C11.611 2.81201 11.2962 3.12682 11.2962 3.51514C11.2962 3.90345 11.611 4.21826 11.9993 4.21826C14.3259 4.21826 16.2188 6.11079 16.2188 8.43701C16.2188 8.82532 16.5336 9.14014 16.9219 9.14014C17.3102 9.14014 17.625 8.82532 17.625 8.43701C17.625 5.33539 15.1013 2.81201 11.9993 2.81201Z" fill="#6D7080"/>
<path d="M10.1876 0.188902C7.01086 0.852698 4.43508 3.40382 3.75731 6.60028C3.18501 9.29943 3.89025 12.0093 5.69217 14.035C6.573 15.0251 7.07812 16.3321 7.07812 17.6245V19.0308C7.07812 19.9664 7.69064 20.7613 8.53561 21.0366C8.81348 22.6784 10.2385 23.9995 12 23.9995C13.761 23.9995 15.1864 22.6788 15.4644 21.0366C16.3094 20.7613 16.9219 19.9664 16.9219 19.0307V17.6245C16.9219 16.3296 17.4287 15.0382 18.3488 13.9884C19.6957 12.4519 20.4375 10.4803 20.4375 8.43703C20.4375 3.11367 15.5649 -0.934505 10.1876 0.188902ZM12 22.5933C11.0962 22.5933 10.3037 21.9713 10.011 21.1355H13.9889C13.6963 21.9713 12.9038 22.5933 12 22.5933ZM15.5156 19.0308C15.5156 19.4185 15.2002 19.7339 14.8125 19.7339H9.1875C8.7998 19.7339 8.48437 19.4185 8.48437 19.0308V18.3277H15.5156V19.0308ZM17.2913 13.0616C16.3107 14.1803 15.7074 15.5294 15.5543 16.9214H8.44584C8.29294 15.5287 7.69116 14.1663 6.74297 13.1003C5.24119 11.4121 4.65436 9.1492 5.133 6.89198C5.6917 4.25695 7.83858 2.1164 10.4752 1.56548C14.9764 0.624839 19.0312 4.00509 19.0312 8.43703C19.0312 10.1392 18.4133 11.7815 17.2913 13.0616Z" fill="#6D7080"/>
<path d="M2.10938 8.43701H0.703125C0.314812 8.43701 0 8.75182 0 9.14014C0 9.52845 0.314812 9.84326 0.703125 9.84326H2.10938C2.49769 9.84326 2.8125 9.52845 2.8125 9.14014C2.8125 8.75182 2.49769 8.43701 2.10938 8.43701Z" fill="#6D7080"/>
<path d="M2.40061 4.92143L1.40625 3.92708C1.1317 3.65248 0.686485 3.65248 0.411891 3.92708C0.137298 4.20167 0.137298 4.64684 0.411891 4.92143L1.40625 5.91579C1.6808 6.19039 2.12602 6.19044 2.40061 5.91579C2.6752 5.6412 2.6752 5.19603 2.40061 4.92143Z" fill="#6D7080"/>
<path d="M2.40061 12.3646C2.12602 12.09 1.6808 12.09 1.40625 12.3646L0.411891 13.3589C0.137298 13.6335 0.137298 14.0787 0.411891 14.3533C0.686438 14.6279 1.13166 14.6279 1.40625 14.3533L2.40061 13.3589C2.6752 13.0843 2.6752 12.6392 2.40061 12.3646Z" fill="#6D7080"/>
<path d="M23.2969 8.43701H21.8906C21.5023 8.43701 21.1875 8.75182 21.1875 9.14014C21.1875 9.52845 21.5023 9.84326 21.8906 9.84326H23.2969C23.6852 9.84326 24 9.52845 24 9.14014C24 8.75182 23.6852 8.43701 23.2969 8.43701Z" fill="#6D7080"/>
<path d="M23.5881 3.92708C23.3136 3.65248 22.8683 3.65248 22.5937 3.92708L21.5994 4.92143C21.3248 5.19603 21.3248 5.6412 21.5994 5.91579C21.8739 6.19034 22.3192 6.19039 22.5937 5.91579L23.5881 4.92143C23.8627 4.64684 23.8627 4.20167 23.5881 3.92708Z" fill="#6D7080"/>
<path d="M23.5881 13.3589L22.5937 12.3646C22.3192 12.09 21.874 12.09 21.5994 12.3646C21.3248 12.6392 21.3248 13.0843 21.5994 13.3589L22.5937 14.3533C22.8683 14.6278 23.3135 14.6279 23.5881 14.3533C23.8627 14.0787 23.8627 13.6335 23.5881 13.3589Z" fill="#6D7080"/>
</g>
<defs>
<clipPath id="clip0_421_195">
<rect width="24" height="24" fill="white"/>
</clipPath>
</defs>
</svg>
