<svg width="24" height="24" viewBox="0 0 24 24" fill="none" xmlns="http://www.w3.org/2000/svg">
<path d="M15.2703 12.6842C15.2703 12.2839 14.9457 11.9594 14.5454 11.9594H7.76401C7.36373 11.9594 7.03915 12.2839 7.03915 12.6842C7.03915 13.0845 7.36373 13.4091 7.76401 13.4091H14.5454C14.9457 13.4091 15.2703 13.0845 15.2703 12.6842Z" fill="#6D7080"/>
<path d="M7.75998 15.3218C7.3597 15.3218 7.03512 15.6464 7.03512 16.0467C7.03512 16.447 7.3597 16.7716 7.75998 16.7716H11.642C12.0423 16.7716 12.3668 16.447 12.3668 16.0467C12.3668 15.6464 12.0423 15.3218 11.642 15.3218H7.75998Z" fill="#6D7080"/>
<path d="M11.7668 21.1731H5.10621C4.65277 21.1731 4.28471 20.8042 4.28471 20.3516V9.15333H6.88775C8.13692 9.15333 9.15333 8.13692 9.15333 6.88775V4.2839H18.4194C18.8729 4.2839 19.2409 4.65277 19.2409 5.10541V11.7902C19.2409 12.1905 19.5655 12.5151 19.9658 12.5151C20.3661 12.5151 20.6906 12.1905 20.6906 11.7902V5.10541C20.6906 3.85302 19.6718 2.83419 18.4194 2.83419H17.8516V2.26719C17.8516 1.01641 16.8344 4.77934e-07 15.5844 4.77934e-07H2.26719C1.01722 -0.000804918 0 1.01641 0 2.26719V17.5198C0 18.7698 1.01722 19.787 2.26719 19.787H2.83499V20.3516C2.83499 21.6039 3.85382 22.6228 5.10621 22.6228H11.7668C12.1671 22.6228 12.4917 22.2982 12.4917 21.8979C12.4917 21.4976 12.1671 21.1731 11.7668 21.1731ZM7.70281 6.88855C7.70281 7.33797 7.33635 7.70442 6.88694 7.70442H4.28471V7.30414C4.28471 7.19622 4.33142 7.08588 4.4031 7.01017L6.99567 4.40954C7.07782 4.32901 7.18413 4.2839 7.29689 4.2839H7.70281V6.88855ZM2.26719 18.3373C1.81617 18.3373 1.44891 17.97 1.44891 17.519V2.26719C1.44891 1.82422 1.82342 1.44891 2.26719 1.44891H15.5844C16.0354 1.44891 16.4019 1.81617 16.4019 2.26719V2.83419H7.29689C6.79674 2.83419 6.32558 3.0299 5.9704 3.38589L3.36817 5.99617C3.02426 6.35297 2.83499 6.81768 2.83499 7.30414V18.3373H2.26719Z" fill="#6D7080"/>
<path d="M18.3365 13.7022C15.4974 13.7022 13.1876 16.0121 13.1876 18.8511C13.1876 21.6901 15.4974 24 18.3365 24C21.1755 24 23.4853 21.6901 23.4853 18.8511C23.4853 16.0121 21.1755 13.7022 18.3365 13.7022ZM18.3365 22.5503C16.2964 22.5503 14.6373 20.8904 14.6373 18.8511C14.6373 16.8118 16.2972 15.1519 18.3365 15.1519C20.3757 15.1519 22.0356 16.8118 22.0356 18.8511C22.0356 20.8912 20.3765 22.5503 18.3365 22.5503Z" fill="#6D7080"/>
<path d="M19.3859 17.5335L17.7976 18.8124L17.4022 18.3083C17.1549 17.9933 16.6991 17.9386 16.3842 18.185C16.0693 18.4323 16.0137 18.8881 16.2609 19.2031L17.1098 20.2855C17.2298 20.4377 17.4054 20.5368 17.5979 20.5585C17.6253 20.5618 17.6527 20.5634 17.6801 20.5634C17.8452 20.5634 18.0054 20.5078 18.1343 20.4031L20.2944 18.6626C20.6061 18.4113 20.6552 17.9555 20.4039 17.6438C20.1542 17.3321 19.6976 17.283 19.3859 17.5335Z" fill="#6D7080"/>
</svg>
