<svg width="24" height="24" viewBox="0 0 24 24" fill="none" xmlns="http://www.w3.org/2000/svg">
<path d="M21.75 4.5C21.9489 4.5 22.1397 4.57902 22.2803 4.71967C22.421 4.86032 22.5 5.05109 22.5 5.25V18.75C22.5 18.9489 22.421 19.1397 22.2803 19.2803C22.1397 19.421 21.9489 19.5 21.75 19.5H2.25C2.05109 19.5 1.86032 19.421 1.71967 19.2803C1.57902 19.1397 1.5 18.9489 1.5 18.75V5.25C1.5 5.05109 1.57902 4.86032 1.71967 4.71967C1.86032 4.57902 2.05109 4.5 2.25 4.5H21.75ZM2.25 3C1.65326 3 1.08097 3.23705 0.65901 3.65901C0.237053 4.08097 0 4.65326 0 5.25L0 18.75C0 19.3467 0.237053 19.919 0.65901 20.341C1.08097 20.7629 1.65326 21 2.25 21H21.75C22.3467 21 22.919 20.7629 23.341 20.341C23.7629 19.919 24 19.3467 24 18.75V5.25C24 4.65326 23.7629 4.08097 23.341 3.65901C22.919 3.23705 22.3467 3 21.75 3H2.25Z" fill="#6D7080"/>
<path d="M10.5 8.25C10.5 8.05109 10.579 7.86032 10.7197 7.71967C10.8603 7.57902 11.0511 7.5 11.25 7.5H18.75C18.9489 7.5 19.1397 7.57902 19.2803 7.71967C19.421 7.86032 19.5 8.05109 19.5 8.25C19.5 8.44891 19.421 8.63968 19.2803 8.78033C19.1397 8.92098 18.9489 9 18.75 9H11.25C11.0511 9 10.8603 8.92098 10.7197 8.78033C10.579 8.63968 10.5 8.44891 10.5 8.25ZM8.256 6.969C8.32585 7.03867 8.38126 7.12143 8.41907 7.21255C8.45688 7.30366 8.47634 7.40135 8.47634 7.5C8.47634 7.59865 8.45688 7.69633 8.41907 7.78745C8.38126 7.87857 8.32585 7.96133 8.256 8.031L6.006 10.281C5.93633 10.3508 5.85357 10.4063 5.76245 10.4441C5.67133 10.4819 5.57365 10.5013 5.475 10.5013C5.37635 10.5013 5.27867 10.4819 5.18755 10.4441C5.09643 10.4063 5.01367 10.3508 4.944 10.281L4.194 9.531C4.12427 9.46127 4.06895 9.37848 4.03121 9.28737C3.99348 9.19626 3.97405 9.09861 3.97405 9C3.97405 8.80083 4.05317 8.60983 4.194 8.469C4.33483 8.32817 4.52584 8.24905 4.725 8.24905C4.92416 8.24905 5.11517 8.32817 5.256 8.469L5.475 8.6895L7.194 6.969C7.26367 6.89915 7.34643 6.84374 7.43755 6.80593C7.52867 6.76812 7.62635 6.74866 7.725 6.74866C7.82365 6.74866 7.92133 6.76812 8.01245 6.80593C8.10357 6.84374 8.18633 6.89915 8.256 6.969ZM10.5 14.25C10.5 14.0511 10.579 13.8603 10.7197 13.7197C10.8603 13.579 11.0511 13.5 11.25 13.5H18.75C18.9489 13.5 19.1397 13.579 19.2803 13.7197C19.421 13.8603 19.5 14.0511 19.5 14.25C19.5 14.4489 19.421 14.6397 19.2803 14.7803C19.1397 14.921 18.9489 15 18.75 15H11.25C11.0511 15 10.8603 14.921 10.7197 14.7803C10.579 14.6397 10.5 14.4489 10.5 14.25ZM8.256 12.969C8.32585 13.0387 8.38126 13.1214 8.41907 13.2125C8.45688 13.3037 8.47634 13.4013 8.47634 13.5C8.47634 13.5986 8.45688 13.6963 8.41907 13.7874C8.38126 13.8786 8.32585 13.9613 8.256 14.031L6.006 16.281C5.93633 16.3508 5.85357 16.4063 5.76245 16.4441C5.67133 16.4819 5.57365 16.5013 5.475 16.5013C5.37635 16.5013 5.27867 16.4819 5.18755 16.4441C5.09643 16.4063 5.01367 16.3508 4.944 16.281L4.194 15.531C4.12427 15.4613 4.06895 15.3785 4.03121 15.2874C3.99348 15.1963 3.97405 15.0986 3.97405 15C3.97405 14.9014 3.99348 14.8037 4.03121 14.7126C4.06895 14.6215 4.12427 14.5387 4.194 14.469C4.26373 14.3993 4.34652 14.344 4.43762 14.3062C4.52873 14.2685 4.62638 14.2491 4.725 14.2491C4.82362 14.2491 4.92127 14.2685 5.01238 14.3062C5.10348 14.344 5.18627 14.3993 5.256 14.469L5.475 14.6895L7.194 12.969C7.26367 12.8992 7.34643 12.8437 7.43755 12.8059C7.52867 12.7681 7.62635 12.7487 7.725 12.7487C7.82365 12.7487 7.92133 12.7681 8.01245 12.8059C8.10357 12.8437 8.18633 12.8992 8.256 12.969Z" fill="#6D7080"/>
</svg>
