<svg width="24" height="24" viewBox="0 0 24 24" fill="none" xmlns="http://www.w3.org/2000/svg">
<path d="M18.8333 3H7.16667C4.86667 3 3 4.86667 3 7.16667V18.8333C3 21.1333 4.86667 23 7.16667 23H18.8333C21.1333 23 23 21.1333 23 18.8333V7.16667C23 4.86667 21.1333 3 18.8333 3ZM7.16667 4.66667H18.8333C20.2083 4.66667 21.3333 5.79167 21.3333 7.16667V9.675H4.66667V7.16667C4.66667 5.79167 5.79167 4.66667 7.16667 4.66667ZM4.66667 18.8333V11.3417H9.70833V21.3333H7.16667C5.79167 21.3333 4.66667 20.2083 4.66667 18.8333ZM18.8333 21.3333H11.375V11.3417H21.3333V18.8333C21.3333 20.2083 20.2083 21.3333 18.8333 21.3333Z" fill="#6D7080"/>
</svg>
