<svg width="18" height="24" viewBox="0 0 18 24" fill="none" xmlns="http://www.w3.org/2000/svg">
<path d="M8.25 8.25C8.25 8.05109 8.17098 7.86032 8.03033 7.71967C7.88968 7.57902 7.69891 7.5 7.5 7.5C7.30109 7.5 7.11032 7.57902 6.96967 7.71967C6.82902 7.86032 6.75 8.05109 6.75 8.25V9.201L5.9265 8.7255C5.84117 8.67548 5.74679 8.64283 5.64879 8.62943C5.5508 8.61603 5.45111 8.62214 5.35549 8.64743C5.25987 8.67271 5.17019 8.71665 5.09162 8.77674C5.01304 8.83682 4.94713 8.91185 4.89768 8.9975C4.84822 9.08316 4.8162 9.17776 4.80345 9.27584C4.7907 9.37393 4.79748 9.47356 4.82339 9.56902C4.84931 9.66447 4.89385 9.75386 4.95445 9.83203C5.01505 9.9102 5.09052 9.97561 5.1765 10.0245L6 10.5L5.1765 10.9755C5.09052 11.0244 5.01505 11.0898 4.95445 11.168C4.89385 11.2461 4.84931 11.3355 4.82339 11.431C4.79748 11.5264 4.7907 11.6261 4.80345 11.7242C4.8162 11.8222 4.84822 11.9168 4.89768 12.0025C4.94713 12.0882 5.01304 12.1632 5.09162 12.2233C5.17019 12.2833 5.25987 12.3273 5.35549 12.3526C5.45111 12.3779 5.5508 12.384 5.64879 12.3706C5.74679 12.3572 5.84117 12.3245 5.9265 12.2745L6.75 11.799V12.75C6.75 12.9489 6.82902 13.1397 6.96967 13.2803C7.11032 13.421 7.30109 13.5 7.5 13.5C7.69891 13.5 7.88968 13.421 8.03033 13.2803C8.17098 13.1397 8.25 12.9489 8.25 12.75V11.799L9.0735 12.2745C9.15883 12.3245 9.25321 12.3572 9.35121 12.3706C9.4492 12.384 9.54889 12.3779 9.64451 12.3526C9.74013 12.3273 9.82981 12.2833 9.90838 12.2233C9.98696 12.1632 10.0529 12.0882 10.1023 12.0025C10.1518 11.9168 10.1838 11.8222 10.1966 11.7242C10.2093 11.6261 10.2025 11.5264 10.1766 11.431C10.1507 11.3355 10.1062 11.2461 10.0456 11.168C9.98495 11.0898 9.90948 11.0244 9.8235 10.9755L9 10.5L9.8235 10.0245C9.90948 9.97561 9.98495 9.9102 10.0456 9.83203C10.1062 9.75386 10.1507 9.66447 10.1766 9.56902C10.2025 9.47356 10.2093 9.37393 10.1966 9.27584C10.1838 9.17776 10.1518 9.08316 10.1023 8.9975C10.0529 8.91185 9.98696 8.83682 9.90838 8.77674C9.82981 8.71665 9.74013 8.67271 9.64451 8.64743C9.54889 8.62214 9.4492 8.61603 9.35121 8.62943C9.25321 8.64283 9.15883 8.67548 9.0735 8.7255L8.25 9.201V8.25ZM5.25 15C5.05109 15 4.86032 15.079 4.71967 15.2197C4.57902 15.3603 4.5 15.5511 4.5 15.75C4.5 15.9489 4.57902 16.1397 4.71967 16.2803C4.86032 16.421 5.05109 16.5 5.25 16.5H12.75C12.9489 16.5 13.1397 16.421 13.2803 16.2803C13.421 16.1397 13.5 15.9489 13.5 15.75C13.5 15.5511 13.421 15.3603 13.2803 15.2197C13.1397 15.079 12.9489 15 12.75 15H5.25ZM5.25 18C5.05109 18 4.86032 18.079 4.71967 18.2197C4.57902 18.3603 4.5 18.5511 4.5 18.75C4.5 18.9489 4.57902 19.1397 4.71967 19.2803C4.86032 19.421 5.05109 19.5 5.25 19.5H12.75C12.9489 19.5 13.1397 19.421 13.2803 19.2803C13.421 19.1397 13.5 18.9489 13.5 18.75C13.5 18.5511 13.421 18.3603 13.2803 18.2197C13.1397 18.079 12.9489 18 12.75 18H5.25Z" fill="#6D7080"/>
<path d="M18 21V6.75L11.25 0H3C2.20435 0 1.44129 0.316071 0.87868 0.87868C0.31607 1.44129 0 2.20435 0 3V21C0 21.7956 0.31607 22.5587 0.87868 23.1213C1.44129 23.6839 2.20435 24 3 24H15C15.7956 24 16.5587 23.6839 17.1213 23.1213C17.6839 22.5587 18 21.7956 18 21ZM11.25 4.5C11.25 5.09674 11.4871 5.66903 11.909 6.09099C12.331 6.51295 12.9033 6.75 13.5 6.75H16.5V21C16.5 21.3978 16.342 21.7794 16.0607 22.0607C15.7794 22.342 15.3978 22.5 15 22.5H3C2.60218 22.5 2.22064 22.342 1.93934 22.0607C1.65804 21.7794 1.5 21.3978 1.5 21V3C1.5 2.60218 1.65804 2.22064 1.93934 1.93934C2.22064 1.65804 2.60218 1.5 3 1.5H11.25V4.5Z" fill="#6D7080"/>
</svg>
