<svg width="26" height="26" viewBox="0 0 26 26" fill="none" xmlns="http://www.w3.org/2000/svg">
<path d="M18.3982 11.3941L21.5591 12.1165" stroke="#6D7080" stroke-width="1.1" stroke-miterlimit="10" stroke-linecap="round" stroke-linejoin="round"/>
<path d="M4.19917 12.1165L7.35398 11.3954" stroke="#6D7080" stroke-width="1.1" stroke-miterlimit="10" stroke-linecap="round" stroke-linejoin="round"/>
<path d="M9.29396 8.67156L10.1846 8.54212C10.3859 8.51289 10.5599 8.38645 10.6499 8.20401L12.3249 4.81029C12.5516 4.35096 13.2066 4.35096 13.4333 4.81029L15.1083 8.20406C15.1983 8.38645 15.3723 8.51289 15.5736 8.54217L19.3188 9.08639C19.8258 9.16007 20.0282 9.78299 19.6614 10.1406L16.9512 12.7823C16.8362 12.8944 16.7705 13.0456 16.765 13.203" stroke="#6D7080" stroke-width="1.1" stroke-miterlimit="10" stroke-linecap="round" stroke-linejoin="round"/>
<path d="M8.99335 13.2077C8.98895 13.0486 8.92314 12.8955 8.80695 12.7822L6.09682 10.1405C5.73002 9.78299 5.93241 9.16002 6.43933 9.08634L7.64531 8.9111" stroke="#6D7080" stroke-width="1.1" stroke-miterlimit="10" stroke-linecap="round" stroke-linejoin="round"/>
<path d="M6.72526 23.6059L4.58462 23.1166C4.35909 23.065 4.19917 22.8644 4.19917 22.6331V16.0388" stroke="#6D7080" stroke-width="1.1" stroke-miterlimit="10" stroke-linecap="round" stroke-linejoin="round"/>
<path d="M21.5591 16.0542V22.633C21.5591 22.8644 21.3991 23.065 21.1736 23.1166L12.9868 24.9879C12.9159 25.004 12.8423 25.004 12.7715 24.9879L8.37057 23.9819" stroke="#6D7080" stroke-width="1.1" stroke-miterlimit="10" stroke-linecap="round" stroke-linejoin="round"/>
<path d="M12.8791 20.9031V24.94" stroke="#6D7080" stroke-width="1.1" stroke-miterlimit="10" stroke-linecap="round" stroke-linejoin="round"/>
<path d="M12.8791 14.1005V19.2121" stroke="#6D7080" stroke-width="1.1" stroke-miterlimit="10" stroke-linecap="round" stroke-linejoin="round"/>
<path d="M19.5055 16.4979L24.7582 15.3157L21.5591 12.1165L12.8791 14.1005L4.19916 12.1165L1 15.3157L9.70473 17.2749L12.8791 14.1005" stroke="#6D7080" stroke-width="1.1" stroke-miterlimit="10" stroke-linecap="round" stroke-linejoin="round"/>
<path d="M12.8791 14.1005L16.0535 17.2749L17.8647 16.8672" stroke="#6D7080" stroke-width="1.1" stroke-miterlimit="10" stroke-linecap="round" stroke-linejoin="round"/>
<path d="M12.8791 1V2.488" stroke="#6D7080" stroke-width="1.1" stroke-miterlimit="10" stroke-linecap="round" stroke-linejoin="round"/>
<path d="M12.8791 1V2.488" stroke="#6D7080" stroke-width="1.1" stroke-miterlimit="10" stroke-linecap="round" stroke-linejoin="round"/>
<path d="M16.8913 4.15002L15.9349 5.28992" stroke="#6D7080" stroke-width="1.1" stroke-miterlimit="10" stroke-linecap="round" stroke-linejoin="round"/>
<path d="M16.8913 4.15002L15.9349 5.28992" stroke="#6D7080" stroke-width="1.1" stroke-miterlimit="10" stroke-linecap="round" stroke-linejoin="round"/>
<path d="M21.2883 5.79172L20.1484 6.74821" stroke="#6D7080" stroke-width="1.1" stroke-miterlimit="10" stroke-linecap="round" stroke-linejoin="round"/>
<path d="M21.2883 5.79172L20.1484 6.74821" stroke="#6D7080" stroke-width="1.1" stroke-miterlimit="10" stroke-linecap="round" stroke-linejoin="round"/>
<path d="M8.86691 4.15002L9.82334 5.28992" stroke="#6D7080" stroke-width="1.1" stroke-miterlimit="10" stroke-linecap="round" stroke-linejoin="round"/>
<path d="M8.86691 4.15002L9.82334 5.28992" stroke="#6D7080" stroke-width="1.1" stroke-miterlimit="10" stroke-linecap="round" stroke-linejoin="round"/>
<path d="M4.46997 5.79172L5.60981 6.74821" stroke="#6D7080" stroke-width="1.1" stroke-miterlimit="10" stroke-linecap="round" stroke-linejoin="round"/>
<path d="M4.46997 5.79172L5.60981 6.74821" stroke="#6D7080" stroke-width="1.1" stroke-miterlimit="10" stroke-linecap="round" stroke-linejoin="round"/>
</svg>
