<svg width="24" height="24" viewBox="0 0 24 24" fill="none" xmlns="http://www.w3.org/2000/svg">
<path d="M5.67225 11.9997C5.67225 15.4893 8.51092 18.328 12.0005 18.328C15.4901 18.328 18.3288 15.4893 18.3288 11.9997C18.3288 8.51011 15.4901 5.67145 12.0005 5.67145C8.51092 5.67145 5.67225 8.51007 5.67225 11.9997ZM12.7036 7.78086V8.62046C13.089 8.75846 13.4376 8.99392 13.6876 9.32721C13.9204 9.63828 13.8579 10.0791 13.5476 10.3119C13.2372 10.5453 12.797 10.4835 12.5629 10.1718C12.1955 9.68018 11.296 9.9816 11.2974 10.5934C11.2974 10.9814 11.6126 11.2966 12.0005 11.2966C13.1637 11.2966 14.1099 12.2428 14.1099 13.406C14.1099 14.3215 13.5203 15.0946 12.7036 15.3859V16.2185C12.7036 16.6072 12.3892 16.9217 12.0005 16.9217C11.6119 16.9217 11.2974 16.6072 11.2974 16.2185V15.3789C10.912 15.2409 10.5634 15.0055 10.3134 14.6722C10.0806 14.3611 10.1431 13.9203 10.4535 13.6875C10.7659 13.4561 11.2053 13.5179 11.4381 13.8276C11.572 14.0068 11.7773 14.1091 12.0005 14.1091C12.3885 14.1091 12.7036 13.7939 12.7036 13.406C12.7036 13.018 12.3885 12.7028 12.0005 12.7028C10.8373 12.7028 9.89109 11.7566 9.89109 10.5934C9.89109 9.67793 10.4807 8.90476 11.2974 8.61352V7.78086C11.2974 7.39222 11.6119 7.07773 12.0005 7.07773C12.3892 7.07773 12.7036 7.39222 12.7036 7.78086Z" fill="#6D7080"/>
<path d="M3.15633 7.57609C3.49871 7.77653 3.92552 7.65578 4.11902 7.32751C5.42812 5.10498 7.62047 3.57181 10.0878 3.03597C9.89057 3.24452 9.8294 3.55793 9.96525 3.82967C10.1383 4.17473 10.5581 4.31826 10.9087 4.14416L13.7213 2.73788C13.9595 2.6184 14.1099 2.37535 14.1099 2.1089C14.1099 1.84246 13.9595 1.59941 13.7213 1.47992L10.9087 0.0736437C10.5606 -0.098016 10.1397 0.0399868 9.96525 0.388134C9.79152 0.735579 9.93229 1.15788 10.2797 1.33161L10.6144 1.499C7.43395 1.92642 4.562 3.80441 2.90775 6.6134C2.71068 6.94847 2.82192 7.37902 3.15633 7.57609Z" fill="#6D7080"/>
<path d="M20.8447 16.4234C20.5082 16.2263 20.0791 16.3362 19.882 16.672C18.5729 18.8945 16.3805 20.4277 13.9132 20.9635C14.1104 20.755 14.1716 20.4415 14.0358 20.1698C13.8613 19.8231 13.4391 19.6837 13.0923 19.8553L10.2797 21.2616C10.0415 21.3811 9.89109 21.6241 9.89109 21.8906C9.89109 22.157 10.0415 22.4001 10.2797 22.5196L13.0923 23.9258C13.4433 24.1001 13.8629 23.9561 14.0358 23.6113C14.2095 23.2639 14.0687 22.8416 13.7213 22.6679L13.3866 22.5005C16.5671 22.073 19.439 20.195 21.0933 17.3861C21.2903 17.051 21.179 16.6204 20.8447 16.4234Z" fill="#6D7080"/>
<path d="M7.32829 19.8812C5.09451 18.5655 3.5573 16.3575 3.0292 13.8748C3.27933 14.1322 3.56546 14.1666 3.83045 14.035C4.17789 13.8613 4.31866 13.439 4.14494 13.0915L2.73866 10.279C2.49969 9.80243 1.71967 9.80243 1.4807 10.279L0.0744222 13.0915C-0.0993 13.439 0.0414684 13.8613 0.388913 14.035C0.737717 14.2087 1.15796 14.0673 1.33238 13.7205L1.49978 13.3859C1.92724 16.5663 3.80523 19.4383 6.61418 21.0925C6.95656 21.2929 7.38337 21.1722 7.57687 20.8439C7.77394 20.5088 7.6627 20.0783 7.32829 19.8812Z" fill="#6D7080"/>
<path d="M23.6121 9.96446C23.2647 9.79144 22.8437 9.93151 22.6686 10.279L22.5012 10.6136C22.0738 7.43316 20.1958 4.56122 17.3868 2.90696C17.0504 2.7099 16.6212 2.81977 16.4241 3.15555C16.2271 3.49062 16.3383 3.92117 16.6727 4.11824C18.8953 5.42744 20.4285 7.61987 20.9643 10.0874C20.7557 9.89002 20.4429 9.82909 20.1706 9.96446C19.8231 10.1382 19.6823 10.5605 19.8561 10.9079L21.2623 13.7205C21.3818 13.9588 21.6249 14.1091 21.8913 14.1091C22.1578 14.1091 22.4008 13.9588 22.5203 13.7205L23.9266 10.9079C24.1003 10.5605 23.9595 10.1382 23.6121 9.96446Z" fill="#6D7080"/>
</svg>
