<svg width="27" height="30" viewBox="0 0 27 30" fill="none" xmlns="http://www.w3.org/2000/svg">
<path fill-rule="evenodd" clip-rule="evenodd" d="M20.8752 11.9156C20.8752 11.9156 7.00879 11.9156 5.93673 11.9156C4.86468 11.9156 4.86468 10.2812 5.93673 10.2812H20.8752C21.9648 10.2812 21.9648 11.9156 20.8752 11.9156ZM23.2794 30H3.55009C1.5993 30 0 28.4007 0 26.4499V3.55009C0 1.5993 1.5993 0 3.55009 0H23.2794C25.2302 0 26.8295 1.5993 26.8295 3.55009V26.4499C26.8295 28.4007 25.2302 30 23.2794 30ZM3.55009 1.63445C2.49561 1.63445 1.63445 2.49561 1.63445 3.55009V26.4499C1.63445 27.5044 2.49561 28.348 3.55009 28.348H23.2794C24.3339 28.348 25.1775 28.348 25.1775 26.4499V3.55009C25.1775 2.49561 24.3339 1.63445 23.2794 1.63445H3.55009ZM13.406 26.6432C13.3357 26.6432 13.2654 26.6432 13.1951 26.6257C9.57469 25.659 8.46749 22.478 8.46749 21.0193V16.6432C8.46749 16.0105 9.1529 15.6063 9.69772 15.9227C10.9104 16.6257 12.5097 15.6239 12.8963 15.3076C13.1951 15.0615 13.6169 15.0615 13.9332 15.3076C14.3199 15.6239 15.9016 16.6257 17.1318 15.9227C17.6766 15.6063 18.362 16.0105 18.362 16.6432C18.362 17.9438 18.3972 19.8067 18.362 21.0369C18.2917 22.5483 17.2373 25.659 13.6169 26.6257C13.5466 26.6432 13.4763 26.6432 13.406 26.6432ZM10.1019 20.9842C10.1195 21.2127 10.348 24.0422 13.406 24.9736C16.464 24.0422 16.71 21.2478 16.71 20.9842V17.768C15.4271 17.9613 14.1968 17.4165 13.406 16.942C12.6327 17.4165 11.4025 17.9613 10.1019 17.768V20.9842ZM12.7381 22.9877C12.5097 22.9877 12.2988 22.8998 12.1582 22.7592L10.9455 21.5466C10.1722 20.7733 11.3322 19.6134 12.1054 20.3866L12.7381 21.0193L14.7241 19.0158C15.4798 18.2601 16.6397 19.42 15.884 20.1757L13.3005 22.7592C13.1599 22.8998 12.949 22.9877 12.7381 22.9877ZM18.7135 4.99121H8.09842C7.02636 4.99121 7.02636 3.35677 8.09842 3.35677H18.7135C19.8032 3.35677 19.8032 4.99121 18.7135 4.99121ZM20.8752 8.45343H5.93673C4.86468 8.45343 4.86468 6.81898 5.93673 6.81898H20.8752C21.9648 6.81898 21.9648 8.45343 20.8752 8.45343Z" fill="#465872"/>
</svg>
