<svg width="24" height="26" viewBox="0 0 24 26" fill="none" xmlns="http://www.w3.org/2000/svg">
<path d="M9.625 24.375H2.625C2.14375 24.375 1.75 24.011 1.75 23.5625V2.4375C1.75 1.989 2.14375 1.625 2.625 1.625H12.25V5.6875C12.25 7.03137 13.4277 8.125 14.875 8.125H19.25V8.9375C19.25 9.386 19.642 9.75 20.125 9.75C20.608 9.75 21 9.386 21 8.9375V7.98688C21 7.33687 20.727 6.72425 20.2318 6.26275L14.2555 0.713375C13.7673 0.26 13.09 0 12.4005 0H2.625C1.17775 0 0 1.09362 0 2.4375V23.5625C0 24.9064 1.17775 26 2.625 26H9.625C10.108 26 10.5 25.636 10.5 25.1875C10.5 24.739 10.108 24.375 9.625 24.375ZM18.0128 6.5H14.875C14.3938 6.5 14 6.136 14 5.6875V2.77387L18.0128 6.5Z" fill="#64748B"/>
<path d="M16.4375 11.375C12.4059 11.375 9.125 14.6559 9.125 18.6875C9.125 22.7191 12.4059 26 16.4375 26C20.4691 26 23.75 22.7191 23.75 18.6875C23.75 14.6559 20.4691 11.375 16.4375 11.375ZM16.4375 24.375C13.3012 24.375 10.75 21.8237 10.75 18.6875C10.75 15.5512 13.3012 13 16.4375 13C19.5737 13 22.125 15.5512 22.125 18.6875C22.125 21.8237 19.5737 24.375 16.4375 24.375Z" fill="#64748B"/>
<path d="M17.0128 14.8623C16.6959 14.5454 16.1808 14.5454 15.8639 14.8623L13.4264 17.2998C13.1095 17.6166 13.1095 18.1318 13.4264 18.4486C13.7433 18.7655 14.2584 18.7655 14.5753 18.4486L15.625 17.3989V21.9375C15.625 22.386 15.989 22.75 16.4375 22.75C16.886 22.75 17.25 22.386 17.25 21.9375V17.3989L18.2998 18.4486C18.459 18.6079 18.667 18.6875 18.875 18.6875C19.083 18.6875 19.291 18.6079 19.4503 18.4503C19.7671 18.1334 19.7671 17.6183 19.4503 17.3014L17.0128 14.8623Z" fill="#64748B"/>
</svg>
