<svg width="23" height="30" viewBox="0 0 23 30" fill="none" xmlns="http://www.w3.org/2000/svg">
<path d="M20.0727 4.56065H17.4242V3.37583C17.4242 2.99249 17.0061 2.81826 16.6227 2.81826H14.5667C14.0789 1.42432 12.8592 0.727354 11.4652 0.727354C10.0866 0.675527 8.83268 1.52084 8.3637 2.81826H6.3425C5.95916 2.81826 5.57582 2.99249 5.57582 3.37583V4.56065H2.92729C1.35779 4.5774 0.0737725 5.81552 0 7.38335V27.3515C0 28.8848 1.39394 29.9999 2.92729 29.9999H20.0727C21.6061 29.9999 23 28.8848 23 27.3515V7.38342C22.9262 5.81552 21.6422 4.5774 20.0727 4.56065ZM6.9697 4.2122H8.88638C9.22096 4.17138 9.4897 3.91685 9.54853 3.58494C9.75491 2.68619 10.5434 2.04105 11.4652 2.01677C12.3785 2.04445 13.1551 2.6916 13.347 3.58494C13.4095 3.92832 13.696 4.18612 14.044 4.2122H16.0304V7.00008H6.9697V4.2122ZM21.6061 27.3515C21.6061 28.1182 20.8394 28.6061 20.0727 28.6061H2.92729C2.16061 28.6061 1.39394 28.1182 1.39394 27.3515V7.38342C1.46504 6.58539 2.12619 5.96927 2.92729 5.95466H5.57576V7.73194C5.61258 8.12241 5.95076 8.4145 6.34243 8.39409H16.6227C17.0216 8.4159 17.3703 8.12781 17.4242 7.73194V5.95459H20.0726C20.8737 5.96927 21.5349 6.58533 21.606 7.38335V27.3515H21.6061Z" fill="#465872"/>
<path d="M8.8167 16.3046C8.55529 16.0291 8.12133 16.0135 7.84091 16.2698L5.6106 18.3955L4.6697 17.4198C4.40829 17.1442 3.97433 17.1287 3.69391 17.3849C3.42397 17.6678 3.42397 18.1127 3.69391 18.3955L5.12267 19.8592C5.24634 19.9977 5.42496 20.0742 5.61053 20.0683C5.79436 20.0657 5.96972 19.9905 6.09839 19.8592L8.81656 17.2804C9.08604 17.0332 9.10405 16.6143 8.85678 16.3449C8.84411 16.3308 8.8307 16.3174 8.8167 16.3046Z" fill="#465872"/>
<path d="M18.8182 17.8032H10.803C10.4181 17.8032 10.1061 18.1153 10.1061 18.5002C10.1061 18.8851 10.4181 19.1972 10.803 19.1972H18.8182C19.2031 19.1972 19.5151 18.8851 19.5151 18.5002C19.5151 18.1153 19.2031 17.8032 18.8182 17.8032Z" fill="#465872"/>
<path d="M8.8167 10.7288C8.55529 10.4533 8.12133 10.4377 7.84091 10.694L5.6106 12.8197L4.6697 11.8439C4.40829 11.5684 3.97433 11.5529 3.69391 11.8091C3.42397 12.0919 3.42397 12.5369 3.69391 12.8197L5.12267 14.2834C5.24634 14.4218 5.42496 14.4984 5.61053 14.4925C5.79436 14.4899 5.96972 14.4147 6.09839 14.2834L8.81656 11.7046C9.08604 11.4574 9.10405 11.0385 8.85678 10.7691C8.84411 10.755 8.8307 10.7416 8.8167 10.7288Z" fill="#465872"/>
<path d="M18.8182 12.2274H10.803C10.4181 12.2274 10.1061 12.5394 10.1061 12.9244C10.1061 13.3093 10.4181 13.6214 10.803 13.6214H18.8182C19.2031 13.6214 19.5151 13.3093 19.5151 12.9244C19.5151 12.5394 19.2031 12.2274 18.8182 12.2274Z" fill="#465872"/>
<path d="M8.8167 21.8803C8.55529 21.6048 8.12133 21.5893 7.84091 21.8455L5.6106 23.9713L4.6697 22.9955C4.40829 22.7199 3.97433 22.7044 3.69391 22.9607C3.42397 23.2435 3.42397 23.6884 3.69391 23.9713L5.12267 25.4349C5.24634 25.5734 5.42496 25.6499 5.61053 25.644C5.79436 25.6414 5.96972 25.5662 6.09839 25.4349L8.81656 22.8561C9.08604 22.6089 9.10405 22.19 8.85678 21.9206C8.84411 21.9066 8.8307 21.8932 8.8167 21.8803Z" fill="#465872"/>
<path d="M18.8182 23.379H10.803C10.4181 23.379 10.1061 23.691 10.1061 24.0759C10.1061 24.4609 10.4181 24.7729 10.803 24.7729H18.8182C19.2031 24.7729 19.5151 24.4609 19.5151 24.0759C19.5151 23.691 19.2031 23.379 18.8182 23.379Z" fill="#465872"/>
</svg>
