<svg width="13" height="14" viewBox="0 0 13 14" fill="none" xmlns="http://www.w3.org/2000/svg">
<path d="M6.17915 13.0682C6.02198 13.0682 5.87125 13.0058 5.76012 12.8946C5.64898 12.7835 5.58655 12.6328 5.58655 12.4756V1.52425C5.58655 1.36708 5.64898 1.21635 5.76012 1.10521C5.87125 0.994076 6.02198 0.931641 6.17915 0.931641C6.33632 0.931641 6.48705 0.994076 6.59819 1.10521C6.70932 1.21635 6.77176 1.36708 6.77176 1.52425V12.4756C6.77176 12.6328 6.70932 12.7835 6.59819 12.8946C6.48705 13.0058 6.33632 13.0682 6.17915 13.0682Z" fill="white"/>
<path d="M11.6548 7.59253H0.703446C0.546277 7.59253 0.395545 7.5301 0.28441 7.41896C0.173275 7.30782 0.11084 7.15709 0.11084 6.99992C0.11084 6.84276 0.173275 6.69202 0.28441 6.58089C0.395545 6.46975 0.546277 6.40732 0.703446 6.40732H11.6548C11.812 6.40732 11.9627 6.46975 12.0738 6.58089C12.185 6.69202 12.2474 6.84276 12.2474 6.99992C12.2474 7.15709 12.185 7.30782 12.0738 7.41896C11.9627 7.5301 11.812 7.59253 11.6548 7.59253Z" fill="white"/>
</svg>
