<svg width="24" height="24" viewBox="0 0 24 24" fill="none" xmlns="http://www.w3.org/2000/svg">
<path d="M23.2969 8.90621C23.6852 8.90621 24 8.5914 24 8.20309V5.39059C24 5.10639 23.8289 4.85007 23.5664 4.74118L12.2695 0.0536836C12.0969 -0.0178945 11.9031 -0.0178945 11.7305 0.0536836L0.433641 4.74118C0.171094 4.85007 0 5.10639 0 5.39059V8.20309C0 8.5914 0.314812 8.90621 0.703125 8.90621H1.92188V16.875H1.6875C1.29919 16.875 0.984375 17.1898 0.984375 17.5781V19.6875H0.703125C0.314812 19.6875 0 20.0023 0 20.3906V23.2968C0 23.6852 0.314812 24 0.703125 24H23.2969C23.6852 24 24 23.6852 24 23.2968V20.3906C24 20.0023 23.6852 19.6875 23.2969 19.6875H23.0156V17.5781C23.0156 17.1898 22.7008 16.875 22.3125 16.875H22.0781V8.90621H23.2969ZM22.5938 21.0937V22.5937H1.40625V21.0937H22.5938ZM5.67188 18.2812V19.6875H2.39062V18.2812H5.67188ZM3.32812 16.875V8.90621H4.73438V16.875H3.32812ZM6.375 16.875H6.14062V8.90621H17.8594V16.875H17.625C17.2367 16.875 16.9219 17.1898 16.9219 17.5781V19.6875H7.07812V17.5781C7.07812 17.1898 6.76331 16.875 6.375 16.875ZM21.6094 18.2812V19.6875H18.3281V18.2812H21.6094ZM19.2656 16.875V8.90621H20.6719V16.875H19.2656ZM1.40625 7.49996V5.86009L12 1.46434L22.5938 5.86004V7.49996H1.40625Z" fill="#465872"/>
<path d="M16.2188 4.6875H7.78125C7.39294 4.6875 7.07812 5.00231 7.07812 5.39062C7.07812 5.77894 7.39294 6.09375 7.78125 6.09375H16.2188C16.6071 6.09375 16.9219 5.77894 16.9219 5.39062C16.9219 5.00231 16.6071 4.6875 16.2188 4.6875Z" fill="#465872"/>
<path d="M12 16.4062C11.6123 16.4062 11.2969 16.0908 11.2969 15.7031C11.2969 15.3148 10.9821 15 10.5938 15C10.2054 15 9.89062 15.3148 9.89062 15.7031C9.89062 16.6198 10.4785 17.4013 11.2969 17.6916V18.0469C11.2969 18.4352 11.6117 18.75 12 18.75C12.3883 18.75 12.7031 18.4352 12.7031 18.0469V17.6916C13.5215 17.4013 14.1094 16.6198 14.1094 15.7031C14.1094 14.54 13.1631 13.5938 12 13.5938C11.6123 13.5938 11.2969 13.2783 11.2969 12.8906C11.2969 12.5029 11.6123 12.1875 12 12.1875C12.3877 12.1875 12.7031 12.5029 12.7031 12.8906C12.7031 13.2789 13.0179 13.5938 13.4062 13.5938C13.7946 13.5938 14.1094 13.2789 14.1094 12.8906C14.1094 11.974 13.5215 11.1924 12.7031 10.9022V10.5469C12.7031 10.1586 12.3883 9.84375 12 9.84375C11.6117 9.84375 11.2969 10.1586 11.2969 10.5469V10.9022C10.4785 11.1924 9.89062 11.974 9.89062 12.8906C9.89062 14.0537 10.8369 15 12 15C12.3877 15 12.7031 15.3154 12.7031 15.7031C12.7031 16.0908 12.3877 16.4062 12 16.4062Z" fill="#465872"/>
</svg>
