<?xml version="1.0" encoding="utf-8"?>
<!-- Generator: Adobe Illustrator 24.2.1, SVG Export Plug-In . SVG Version: 6.00 Build 0)  -->
<svg version="1.1" id="Layer_1" xmlns="http://www.w3.org/2000/svg" xmlns:xlink="http://www.w3.org/1999/xlink" x="0px" y="0px"
	 viewBox="0 0 26 26" style="enable-background:new 0 0 26 26;" xml:space="preserve">
<style type="text/css">
	.st0{clip-path:url(#SVGID_2_);}
	.st1{fill:#465872;}
</style>
<g>
	<defs>
		<rect id="SVGID_1_" width="26" height="26"/>
	</defs>
	<clipPath id="SVGID_2_">
		<use xlink:href="#SVGID_1_"  style="overflow:visible;"/>
	</clipPath>
	<g class="st0">
		<path class="st1" d="M17.6,11.6c0.1,0.1,0.1,0.2,0.2,0.3c0,0.1,0.1,0.2,0.1,0.3s0,0.2-0.1,0.3c0,0.1-0.1,0.2-0.2,0.3l-4.9,4.9
			c-0.1,0.1-0.2,0.1-0.3,0.2c-0.1,0-0.2,0.1-0.3,0.1c-0.1,0-0.2,0-0.3-0.1c-0.1,0-0.2-0.1-0.3-0.2l-2.4-2.4C9.1,15.1,9,15,9,14.9
			c0-0.1-0.1-0.2-0.1-0.3s0-0.2,0.1-0.3c0-0.1,0.1-0.2,0.2-0.3c0.2-0.2,0.4-0.2,0.6-0.2c0.1,0,0.2,0,0.3,0.1c0.1,0,0.2,0.1,0.3,0.2
			l1.9,1.9l4.3-4.3c0.1-0.1,0.2-0.1,0.3-0.2c0.1,0,0.2-0.1,0.3-0.1c0.1,0,0.2,0,0.3,0.1C17.5,11.5,17.6,11.5,17.6,11.6z"/>
		<path class="st1" d="M5.7,0c0.2,0,0.4,0.1,0.6,0.2c0.2,0.2,0.2,0.4,0.2,0.6v0.8h13V0.8c0-0.2,0.1-0.4,0.2-0.6
			C19.9,0.1,20.1,0,20.3,0s0.4,0.1,0.6,0.2c0.2,0.2,0.2,0.4,0.2,0.6v0.8h1.6c0.9,0,1.7,0.3,2.3,1c0.6,0.6,1,1.4,1,2.3v17.9
			c0,0.9-0.3,1.7-1,2.3c-0.6,0.6-1.4,1-2.3,1H3.3c-0.9,0-1.7-0.3-2.3-1c-0.6-0.6-1-1.4-1-2.3V4.9C0,4,0.3,3.2,1,2.6
			c0.6-0.6,1.4-1,2.3-1h1.6V0.8c0-0.2,0.1-0.4,0.2-0.6C5.3,0.1,5.5,0,5.7,0z M1.6,6.5v16.3c0,0.4,0.2,0.8,0.5,1.1
			c0.3,0.3,0.7,0.5,1.1,0.5h19.5c0.4,0,0.8-0.2,1.1-0.5c0.3-0.3,0.5-0.7,0.5-1.1V6.5H1.6z"/>
	</g>
</g>
</svg>
