<svg width="60" height="60" viewBox="0 0 60 60" fill="none" xmlns="http://www.w3.org/2000/svg">
<circle cx="30" cy="30" r="29.5" fill="#F0FDF4" stroke="#55E08B"/>
<mask id="mask0_346_12712" style="mask-type:luminance" maskUnits="userSpaceOnUse" x="18" y="18" width="24" height="24">
<path d="M18 18H42V42H18V18Z" fill="white"/>
</mask>
<g mask="url(#mask0_346_12712)">
<path fill-rule="evenodd" clip-rule="evenodd" d="M30 42C36.6274 42 42 36.6274 42 30C42 23.3726 36.6274 18 30 18C23.3726 18 18 23.3726 18 30C18 36.6274 23.3726 42 30 42ZM26.6985 29.247C26.1924 28.7409 25.3718 28.7409 24.8657 29.247C24.3596 29.7532 24.3596 30.5737 24.8657 31.0799L28.0561 34.2703C28.5623 34.7764 29.3828 34.7764 29.889 34.2703L35.9984 28.1609C36.5045 27.6548 36.5045 26.8342 35.9984 26.3281C35.4923 25.822 34.6716 25.822 34.1655 26.3281L28.9726 31.5211L26.6985 29.247Z" fill="#28A34A"/>
</g>
</svg>
